<svg width="102" height="35" viewBox="0 0 102 35" fill="none" xmlns="http://www.w3.org/2000/svg">
<rect x="2.10938" y="1" width="97.7826" height="33" rx="15" stroke="#000010" stroke-width="2"/>
<line x1="1" y1="8" x2="1" y2="28" stroke="#000010" stroke-width="2"/>
<line x1="2.10938" y1="6" x2="2.10938" y2="11" stroke="#000010" stroke-width="2"/>
<line x1="3.5" y1="4" x2="3.5" y2="9" stroke="#000010" stroke-width="3"/>
<line x1="5.5" y1="3" x2="5.5" y2="6" stroke="#000010" stroke-width="3"/>
<line x1="7.5" y1="2" x2="7.5" y2="4" stroke="#000010" stroke-width="3"/>
<line x1="9.5" y1="1" x2="9.5" y2="3" stroke="#000010" stroke-width="3"/>
<line x1="12.5" x2="12.5" y2="2" stroke="#000010" stroke-width="3"/>
<line x1="14.3047" x2="14.3047" y2="2" stroke="#000010" stroke-width="2"/>
<line x1="16" x2="16" y2="2" stroke="#000010" stroke-width="2"/>
<line x1="16.5215" x2="16.5215" y2="2" stroke="#000010" stroke-width="2"/>
<line x1="17.6309" x2="17.6309" y2="2" stroke="#000010" stroke-width="2"/>
<line y1="-1" x2="20" y2="-1" transform="matrix(0 -1 -1 0 0 27)" stroke="#000010" stroke-width="2"/>
<line y1="-1" x2="5" y2="-1" transform="matrix(0 -1 -1 0 1.10938 29)" stroke="#000010" stroke-width="2"/>
<line y1="-1.5" x2="5" y2="-1.5" transform="matrix(-4.3711e-08 -1 -1 4.3711e-08 2 31)" stroke="#000010" stroke-width="3"/>
<line y1="-1.5" x2="3" y2="-1.5" transform="matrix(0 -1 -1 0 4 32)" stroke="#000010" stroke-width="3"/>
<line y1="-1.5" x2="2" y2="-1.5" transform="matrix(0 -1 -1 0 6 33)" stroke="#000010" stroke-width="3"/>
<line y1="-1.5" x2="2" y2="-1.5" transform="matrix(0 -1 -1 0 8 34)" stroke="#000010" stroke-width="3"/>
<line y1="-1.5" x2="2" y2="-1.5" transform="matrix(0 -1 -1 0 11 35)" stroke="#000010" stroke-width="3"/>
<line y1="-1" x2="2" y2="-1" transform="matrix(0 -1 -1 0 13.3047 35)" stroke="#000010" stroke-width="2"/>
<line y1="-1" x2="2" y2="-1" transform="matrix(0 -1 -1 0 15 35)" stroke="#000010" stroke-width="2"/>
<line y1="-1" x2="2" y2="-1" transform="matrix(0 -1 -1 0 15.5215 35)" stroke="#000010" stroke-width="2"/>
<line y1="-1" x2="2" y2="-1" transform="matrix(0 -1 -1 0 16.6309 35)" stroke="#000010" stroke-width="2"/>
<line x1="101" y1="27" x2="101" y2="7" stroke="#000010" stroke-width="2"/>
<line x1="99.8652" y1="29" x2="99.8652" y2="24" stroke="#000010" stroke-width="2"/>
<line x1="98.4551" y1="31" x2="98.4551" y2="26" stroke="#000010" stroke-width="3"/>
<line x1="96.4121" y1="32" x2="96.4121" y2="29" stroke="#000010" stroke-width="3"/>
<line x1="94.3672" y1="33" x2="94.3672" y2="31" stroke="#000010" stroke-width="3"/>
<line x1="92.3223" y1="34" x2="92.3223" y2="32" stroke="#000010" stroke-width="3"/>
<line x1="89.2559" y1="35" x2="89.2559" y2="33" stroke="#000010" stroke-width="3"/>
<line x1="87.4004" y1="35" x2="87.4004" y2="33" stroke="#000010" stroke-width="2"/>
<line x1="85.668" y1="35" x2="85.668" y2="33" stroke="#000010" stroke-width="2"/>
<line x1="85.1348" y1="35" x2="85.1348" y2="33" stroke="#000010" stroke-width="2"/>
<line x1="84" y1="35" x2="84" y2="33" stroke="#000010" stroke-width="2"/>
<line y1="-1" x2="20" y2="-1" transform="matrix(0 1 1 0 102 8)" stroke="#000010" stroke-width="2"/>
<line y1="-1" x2="5" y2="-1" transform="matrix(0 1 1 0 100.865 6)" stroke="#000010" stroke-width="2"/>
<line y1="-1.5" x2="5" y2="-1.5" transform="matrix(4.46813e-08 1 1 -4.27619e-08 99.9551 4)" stroke="#000010" stroke-width="3"/>
<line y1="-1.5" x2="3" y2="-1.5" transform="matrix(0 1 1 0 97.9121 3)" stroke="#000010" stroke-width="3"/>
<line y1="-1.5" x2="2" y2="-1.5" transform="matrix(0 1 1 0 95.8672 2)" stroke="#000010" stroke-width="3"/>
<line y1="-1.5" x2="2" y2="-1.5" transform="matrix(0 1 1 0 93.8223 1)" stroke="#000010" stroke-width="3"/>
<line y1="-1.5" x2="2" y2="-1.5" transform="matrix(0 1 1 0 90.7559 0)" stroke="#000010" stroke-width="3"/>
<line y1="-1" x2="2" y2="-1" transform="matrix(0 1 1 0 88.4004 0)" stroke="#000010" stroke-width="2"/>
<line y1="-1" x2="2" y2="-1" transform="matrix(0 1 1 0 86.668 0)" stroke="#000010" stroke-width="2"/>
<line y1="-1" x2="2" y2="-1" transform="matrix(0 1 1 0 86.1348 0)" stroke="#000010" stroke-width="2"/>
<line y1="-1" x2="2" y2="-1" transform="matrix(0 1 1 0 85 0)" stroke="#000010" stroke-width="2"/>
<line x1="90" y1="33.5" x2="91" y2="33.5" stroke="#000010"/>
<line x1="90.5" y1="1" x2="90.5" y2="2" stroke="#000010"/>
</svg>
