<svg width="35" height="35" viewBox="0 0 35 35" fill="none" xmlns="http://www.w3.org/2000/svg">
<g clip-path="url(#clip0_125_6405)">
<path d="M32.4969 12.5017H30.8344V14.1642H29.1719V15.8376H30.8344V17.5001H32.4969V15.8376H34.1703V14.1642H32.4969V12.5017Z" fill="#000010"/>
<path d="M32.4965 24.1719H30.834V25.8344H32.4965V24.1719Z" fill="#000010"/>
<path d="M29.1715 0.831299V2.50474H27.498V4.16724H29.1715V5.82974H30.834V4.16724H32.4965V2.50474H30.834V0.831299H29.1715Z" fill="#000010"/>
<path d="M29.1715 9.16577H27.498V10.8392H29.1715V9.16577Z" fill="#000010"/>
<path d="M27.498 29.1704H25.8355V30.8329H24.1621V32.5063H25.8355V34.1688H27.498V32.5063H29.1715V30.8329H27.498V29.1704Z" fill="#000010"/>
<path d="M27.4984 20.8359H25.8359V22.4984H27.4984V20.8359Z" fill="#000010"/>
<path d="M24.1609 24.1719H14.1641V25.8344H22.4984V27.4969H24.1609V24.1719Z" fill="#000010"/>
<path d="M14.1641 9.16567V10.8391H24.1609V7.50317H22.4984V9.16567H14.1641Z" fill="#000010"/>
<path d="M22.5 27.4968H19.1641V29.1703H22.5V27.4968Z" fill="#000010"/>
<path d="M20.8359 20.8361V19.1736H22.4984V17.5001H20.8359V15.8376H19.1625V17.5001H17.5V19.1736H19.1625V20.8361H20.8359Z" fill="#000010"/>
<path d="M22.5 5.82983H19.1641V7.50327H22.5V5.82983Z" fill="#000010"/>
<path d="M19.1625 29.1704H10.8281V30.8329H19.1625V29.1704Z" fill="#000010"/>
<path d="M14.1645 22.4985H12.502V24.172H14.1645V22.4985Z" fill="#000010"/>
<path d="M14.1645 10.8391H12.502V12.5016H14.1645V10.8391Z" fill="#000010"/>
<path d="M19.1625 4.16724H10.8281V5.82974H19.1625V4.16724Z" fill="#000010"/>
<path d="M12.5016 12.5017H10.8281V22.4986H12.5016V12.5017Z" fill="#000010"/>
<path d="M10.8289 27.4968H7.50391V29.1703H10.8289V27.4968Z" fill="#000010"/>
<path d="M10.8289 5.82983H7.50391V7.50327H10.8289V5.82983Z" fill="#000010"/>
<path d="M7.50352 25.8345H5.83008V27.497H7.50352V25.8345Z" fill="#000010"/>
<path d="M7.50352 7.50317H5.83008V9.16567H7.50352V7.50317Z" fill="#000010"/>
<path d="M5.83047 22.4985H4.16797V25.8345H5.83047V22.4985Z" fill="#000010"/>
<path d="M5.83047 9.16577H4.16797V12.5017H5.83047V9.16577Z" fill="#000010"/>
<path d="M4.16836 32.5063H2.50586V34.1688H4.16836V32.5063Z" fill="#000010"/>
<path d="M4.16836 12.5017H2.50586V22.4986H4.16836V12.5017Z" fill="#000010"/>
<path d="M2.50547 4.16724H0.832031V5.82974H2.50547V4.16724Z" fill="#000010"/>
</g>
<defs>
<clipPath id="clip0_125_6405">
<rect width="35" height="35" fill="white"/>
</clipPath>
</defs>
</svg>
