<svg width="35" height="35" viewBox="0 0 35 35" fill="none" xmlns="http://www.w3.org/2000/svg">
<path d="M8.7487 16.0417H1.45703V18.9584H8.7487V16.0417Z" fill="#FDDEC3"/>
<path d="M5.83333 7.29167H4.375V5.83333H5.83333V4.375H7.29167V5.83333H8.75V7.29167H10.2083V8.75H11.6667V10.2083H10.2083V11.6667H8.75V10.2083H7.29167V8.75H5.83333V7.29167Z" fill="#FDDEC3"/>
<path d="M10.2083 24.7916H11.6667V26.2499H10.2083V27.7083H8.75V29.1666H7.29167V30.6249H5.83333V29.1666H4.375V27.7083H5.83333V26.2499H7.29167V24.7916H8.75V23.3333H10.2083V24.7916Z" fill="#FDDEC3"/>
<path d="M18.9596 26.25H16.043V33.5417H18.9596V26.25Z" fill="#FDDEC3"/>
<path d="M18.9596 1.45825H16.043V8.74992H18.9596V1.45825Z" fill="#FDDEC3"/>
<path d="M29.1654 27.7083H30.6237V29.1666H29.1654V30.6249H27.707V29.1666H26.2487V27.7083H24.7904V26.2499H23.332V24.7916H24.7904V23.3333H26.2487V24.7916H27.707V26.2499H29.1654V27.7083Z" fill="#FDDEC3"/>
<path d="M33.5417 16.0417H26.25V18.9584H33.5417V16.0417Z" fill="#FDDEC3"/>
<path d="M24.7904 10.2083H23.332V8.75H24.7904V7.29167H26.2487V5.83333H27.707V4.375H29.1654V5.83333H30.6237V7.29167H29.1654V8.75H27.707V10.2083H26.2487V11.6667H24.7904V10.2083Z" fill="#FDDEC3"/>
<path d="M23.332 23.3333H20.4154V24.7916H14.582V23.3333H11.6654V20.4166H10.207V14.5833H11.6654V11.6666H14.582V10.2083H20.4154V11.6666H23.332V14.5833H24.7904V20.4166H23.332V23.3333Z" fill="#FDDEC3"/>
</svg>
