<svg width="24" height="24" viewBox="0 0 24 24" fill="none" xmlns="http://www.w3.org/2000/svg">
<g clip-path="url(#clip0_125_6433)">
<path d="M17.1384 5.71495V8.00245H15.9984V11.43H17.1384V12.57H18.2859V13.7175H14.8584V14.8575H13.7109V15.9975H17.1384V18.285H15.9984V20.5725H17.1384V21.7125H19.4259V20.5725H20.5734V19.425H21.7134V17.145H22.8534V14.8575H24.0009V9.14245H22.8534V6.85495H21.7134V4.57495H20.5734V5.71495H17.1384Z" fill="#000010"/>
<path d="M20.5733 3.42749H19.4258V4.57499H20.5733V3.42749Z" fill="#000010"/>
<path d="M19.4242 2.2876H17.1367V3.4276H19.4242V2.2876Z" fill="#000010"/>
<path d="M17.1374 21.7124H14.8574V22.8599H17.1374V21.7124Z" fill="#000010"/>
<path d="M17.1374 1.13989H14.8574V2.28739H17.1374V1.13989Z" fill="#000010"/>
<path d="M12.5705 21.7125H11.4305V20.5725H7.99547V21.7125H6.85547V22.86H9.14297V24H14.858V22.86H12.5705V21.7125Z" fill="#000010"/>
<path d="M14.8576 0H9.14258V1.14H14.8576V0Z" fill="#000010"/>
<path d="M7.99414 12.57H9.14164V13.7175H10.2816V10.2825H7.99414V12.57Z" fill="#000010"/>
<path d="M6.85586 20.5725H4.56836V21.7125H6.85586V20.5725Z" fill="#000010"/>
<path d="M4.56773 19.425H3.42773V20.5725H4.56773V19.425Z" fill="#000010"/>
<path d="M2.2875 17.1449V19.4249H3.4275V18.2849H4.5675V17.1449H5.715V13.7174H4.5675V12.5699H3.4275V11.4299H2.2875V10.2824H3.4275V9.14239H6.855V8.00239H7.995V6.85489H9.1425V8.00239H10.2825V6.85489H11.43V4.57489H10.2825V3.42739H7.995V2.28739H9.1425V1.13989H6.855V2.28739H4.5675V3.42739H3.4275V4.57489H2.2875V6.85489H1.14V9.14239H0V14.8574H1.14V17.1449H2.2875Z" fill="#000010"/>
</g>
<defs>
<clipPath id="clip0_125_6433">
<rect width="24" height="24" fill="white"/>
</clipPath>
</defs>
</svg>
