<svg width="41" height="40" viewBox="0 0 41 40" fill="none" xmlns="http://www.w3.org/2000/svg">
<path d="M40.4813 3.98999H36.4172V35.9887H40.4813V3.98999Z" fill="#FDDEC3"/>
<path d="M36.4172 35.9888H28.3157V40.005H36.4172V35.9888Z" fill="#FDDEC3"/>
<path d="M28.3156 20.0024H24.2781V23.9924H20.2406V28.0087H24.2781V35.9887H28.3156V20.0024Z" fill="#FDDEC3"/>
<path d="M20.2406 28.0088H16.1765V31.9988H20.2406V28.0088Z" fill="#FDDEC3"/>
<path d="M16.1765 31.9988H12.139V35.9888H16.1765V31.9988Z" fill="#FDDEC3"/>
<path d="M16.1765 15.9863H20.2406V11.9963H4.03748V15.9863H12.139V20.0026H16.1765V15.9863Z" fill="#FDDEC3"/>
<path d="M12.139 20.0024H8.07495V23.9924H12.139V20.0024Z" fill="#FDDEC3"/>
<path d="M36.4172 0L4.03748 0V3.99H36.4172V0Z" fill="#FDDEC3"/>
<path d="M12.139 35.9888H4.03748V40.005H12.139V35.9888Z" fill="#FDDEC3"/>
<path d="M8.07497 23.9924H4.03748V28.0087H8.07497V23.9924Z" fill="#FDDEC3"/>
<path d="M4.0375 28.0088H0L0 35.9888H4.0375V28.0088Z" fill="#FDDEC3"/>
<path d="M4.0375 3.98999H0L0 11.9962H4.0375V3.98999Z" fill="#FDDEC3"/>
</svg>
