<svg width="49" height="45" viewBox="0 0 49 45" fill="none" xmlns="http://www.w3.org/2000/svg">
<g clip-path="url(#clip0_125_14157)">
<path fill-rule="evenodd" clip-rule="evenodd" d="M48.0696 22.5C48.0696 34.9264 37.3089 45 24.0348 45C10.7607 45 0 34.9264 0 22.5C0 10.0736 10.7607 0 24.0348 0C37.3089 0 48.0696 10.0736 48.0696 22.5ZM24.8961 16.6105C22.5584 17.5207 17.8862 19.4047 10.8795 22.2625C9.74177 22.686 9.14576 23.1004 9.0915 23.5056C8.9998 24.1903 9.91578 24.4599 11.1631 24.8271C11.3328 24.877 11.5086 24.9288 11.6888 24.9836C12.916 25.3571 14.5667 25.794 15.4249 25.8113C16.2034 25.8271 17.0722 25.5266 18.0314 24.91C24.5779 20.7731 27.9572 18.6821 28.1694 18.6371C28.3191 18.6053 28.5265 18.5653 28.667 18.6822C28.8076 18.7991 28.7938 19.0206 28.7789 19.08C28.6881 19.4421 25.0926 22.5714 23.2319 24.1908C22.6518 24.6957 22.2404 25.0538 22.1562 25.1356C21.9678 25.3188 21.7758 25.4921 21.5912 25.6586C20.4511 26.6875 19.5962 27.459 21.6386 28.719C22.62 29.3245 23.4054 29.8251 24.1889 30.3247C25.0446 30.8702 25.8981 31.4142 27.0023 32.0919C27.2837 32.2645 27.5524 32.4438 27.8141 32.6185C28.8099 33.2831 29.7045 33.8801 30.8098 33.7849C31.452 33.7296 32.1154 33.1643 32.4523 31.4782C33.2486 27.4934 34.8137 18.8596 35.1754 15.3018C35.2071 14.9901 35.1672 14.5912 35.1352 14.4161C35.1032 14.241 35.0363 13.9915 34.7931 13.8067C34.5051 13.588 34.0606 13.5419 33.8618 13.5452C32.9578 13.5601 31.5708 14.0115 24.8961 16.6105Z" fill="#D47B28"/>
</g>
<defs>
<clipPath id="clip0_125_14157">
<rect width="48.0696" height="45" fill="white"/>
</clipPath>
</defs>
</svg>
