<svg width="48" height="45" viewBox="0 0 48 45" fill="none" xmlns="http://www.w3.org/2000/svg">
<g clip-path="url(#clip0_125_14158)">
<path fill-rule="evenodd" clip-rule="evenodd" d="M3.37413 3.16325C0 6.32649 0 11.4176 0 21.6V23.4C0 33.5824 0 38.6735 3.37413 41.8368C6.74826 45 12.1788 45 23.04 45H24.96C35.8212 45 41.2517 45 44.6259 41.8368C48 38.6735 48 33.5824 48 23.4V21.6C48 11.4176 48 6.32649 44.6259 3.16325C41.2517 0 35.8212 0 24.96 0H23.04C12.1788 0 6.74826 0 3.37413 3.16325ZM8.10012 13.6876C8.36012 25.3876 14.6001 32.4188 25.5401 32.4188H26.1602V25.7251C30.1802 26.1001 33.22 28.8563 34.44 32.4188H40.1201C38.5601 27.0938 34.4599 24.1501 31.8999 23.0251C34.4599 21.6376 38.0599 18.2626 38.9199 13.6876H33.7598C32.6398 17.4001 29.3202 20.7751 26.1602 21.0938V13.6876H21V26.6626C17.8 25.9126 13.7601 22.2751 13.5801 13.6876H8.10012Z" fill="#D47B28"/>
</g>
<defs>
<clipPath id="clip0_125_14158">
<rect width="48" height="45" fill="white"/>
</clipPath>
</defs>
</svg>
