<svg width="404" height="420" viewBox="0 0 404 420" fill="none" xmlns="http://www.w3.org/2000/svg">
<rect x="23" y="19" width="361" height="27" fill="#000010"/>
<rect x="23" y="110" width="361" height="27" fill="#000010"/>
<rect x="23" y="320" width="361" height="27" fill="#000010"/>
<rect x="3" y="34" width="391" height="27" fill="#000010"/>
<rect x="39" y="125" width="361" height="27" fill="#000010"/>
<rect x="26" y="335" width="374" height="27" fill="#000010"/>
<rect x="40" y="282" width="340" height="27" fill="#000010"/>
<rect x="13" y="52" width="391" height="27" fill="#000010"/>
<rect x="13" y="143" width="391" height="27" fill="#000010"/>
<rect x="35" y="353" width="349" height="27" fill="#000010"/>
<rect x="46" y="300" width="303" height="27" fill="#000010"/>
<rect x="16" y="201" width="375" height="27" fill="#000010"/>
<rect x="23" y="66" width="368" height="27" fill="#000010"/>
<rect y="157" width="391" height="27" fill="#000010"/>
<rect x="84" y="384" width="240" height="27" fill="#000010"/>
<rect x="31" y="367" width="328" height="27" fill="#000010"/>
<rect x="31" y="314" width="360" height="27" fill="#000010"/>
<rect x="31" y="242" width="368" height="27" fill="#000010"/>
<rect x="13" y="215" width="385" height="27" fill="#000010"/>
<rect x="31" y="85" width="341" height="17" fill="#000010"/>
<rect x="13" y="176" width="371" height="17" fill="#000010"/>
<rect x="109" y="403" width="211" height="17" fill="#000010"/>
<rect x="55" y="386" width="289" height="17" fill="#000010"/>
<rect x="43" y="261" width="349" height="17" fill="#000010"/>
<rect x="7" y="234" width="384" height="17" fill="#000010"/>
<rect x="44" y="98" width="320" height="17" fill="#000010"/>
<rect x="42" y="189" width="322" height="17" fill="#000010"/>
<rect x="31" y="274" width="341" height="17" fill="#000010"/>
<rect x="64" width="262" height="17" fill="#000010"/>
<rect x="44" y="7" width="320" height="17" fill="#000010"/>
<rect x="44" y="98" width="290" height="17" fill="#000010"/>
</svg>
