<svg width="1142" height="872" viewBox="0 0 1142 872" fill="none" xmlns="http://www.w3.org/2000/svg">
<rect y="73" width="918" height="71" fill="#000010"/>
<rect x="86" y="38" width="720" height="71" fill="#000010"/>
<rect x="30" y="148" width="879" height="41" fill="#000010"/>
<rect x="110" y="172" width="620" height="34" fill="#000010"/>
<rect x="229" width="249" height="34" fill="#000010"/>
<rect x="160" y="16" width="517" height="37" fill="#000010"/>
<rect x="14" y="128" width="921" height="32" fill="#000010"/>
<rect x="49" y="700" width="745" height="71" fill="#000010"/>
<rect x="99" y="665" width="743" height="71" fill="#000010"/>
<rect x="160" y="775" width="595" height="34" fill="#000010"/>
<rect x="292" y="799" width="304" height="34" fill="#000010"/>
<rect x="355" y="821" width="156" height="34" fill="#000010"/>
<rect x="389" y="838" width="61" height="34" fill="#000010"/>
<rect x="249" y="627" width="490" height="34" fill="#000010"/>
<rect x="140" y="643" width="676" height="45" fill="#000010"/>
<rect x="96" y="755" width="681" height="32" fill="#000010"/>
<rect x="211" y="664" width="681" height="32" fill="#000010"/>
<rect x="319" y="255" width="813" height="38" fill="#000010"/>
<rect x="229" y="220" width="876" height="43" fill="#000010"/>
<rect x="354.826" y="293" width="712.868" height="34" fill="#000010"/>
<rect x="424.645" y="306" width="569.559" height="34" fill="#000010"/>
<rect x="427.4" y="182" width="569.559" height="34" fill="#000010"/>
<rect x="195" y="195" width="873" height="48" fill="#000010"/>
<rect x="303" y="274" width="809" height="32" fill="#000010"/>
<rect x="494" y="589" width="648" height="38" fill="#000010"/>
<rect x="478" y="563" width="618.712" height="35" fill="#000010"/>
<rect x="522.557" y="627" width="568.19" height="34" fill="#000010"/>
<rect x="578.203" y="640" width="453.966" height="34" fill="#000010"/>
<rect x="580.4" y="516" width="453.966" height="34" fill="#000010"/>
<rect x="427" y="532" width="641" height="45" fill="#000010"/>
<rect x="427" y="608" width="699" height="32" fill="#000010"/>
<rect x="86" y="372" width="832" height="57" fill="#000010"/>
<rect x="96.3555" y="346.055" width="795.374" height="39.656" fill="#000010"/>
<rect x="122.887" y="428.766" width="730.562" height="73.6468" fill="#000010"/>
<rect x="194.521" y="443" width="582.917" height="84" fill="#000010"/>
<rect x="211.059" y="487" width="548.81" height="56" fill="#000010"/>
<rect x="197.07" y="303" width="583.588" height="38.5229" fill="#000010"/>
<rect x="122.709" y="321.128" width="730.426" height="50.9862" fill="#000010"/>
<rect x="107.518" y="407.239" width="791.015" height="79.3119" fill="#000010"/>
</svg>
