<svg width="2289" height="419" viewBox="0 0 2289 419" fill="none" xmlns="http://www.w3.org/2000/svg">
<line y1="305.789" x2="103.504" y2="305.789" stroke="#FDDEC3" stroke-width="4"/>
<line x1="103.505" y1="176.409" x2="208.371" y2="176.409" stroke="#FDDEC3" stroke-width="4"/>
<line x1="516" y1="217" x2="455" y2="217" stroke="#FDDEC3" stroke-width="4"/>
<path d="M1262.25 290L1236 290" stroke="#FDDEC3" stroke-width="4"/>
<path d="M1239.5 253L1171 253" stroke="#FDDEC3" stroke-width="4"/>
<line x1="1843.35" y1="194.037" x2="1752.1" y2="194.037" stroke="#FDDEC3" stroke-width="4"/>
<path d="M1286.8 290.027L1260 290.027" stroke="#FDDEC3" stroke-width="4"/>
<line x1="1923.71" y1="375.867" x2="1897.4" y2="375.867" stroke="#FDDEC3" stroke-width="4"/>
<line y1="-2" x2="46" y2="-2" transform="matrix(-1 0 0 1 459 219)" stroke="#FDDEC3" stroke-width="4"/>
<line y1="-2" x2="77.6283" y2="-2" transform="matrix(-1 0 0 1 1167.06 157.266)" stroke="#FDDEC3" stroke-width="4"/>
<path d="M843 196L902 196" stroke="#FDDEC3" stroke-width="4"/>
<path d="M1490 281.855H1420.27" stroke="#FDDEC3" stroke-width="4"/>
<path d="M1513.69 226H1486" stroke="#FDDEC3" stroke-width="4"/>
<line x1="236.972" y1="22.7573" x2="382.001" y2="22.7573" stroke="#FDDEC3" stroke-width="4"/>
<line x1="963.426" y1="22.5144" x2="1062.84" y2="22.5144" stroke="#FDDEC3" stroke-width="4"/>
<path d="M1596.55 22H1690.5" stroke="#FDDEC3" stroke-width="4"/>
<line x1="512" y1="243" x2="593.714" y2="243" stroke="#FDDEC3" stroke-width="4"/>
<path d="M1839.4 236.341L1900.55 236.341" stroke="#FDDEC3" stroke-width="4"/>
<path d="M1285.44 317.351H1301.69" stroke="#FDDEC3" stroke-width="4"/>
<path d="M1922.34 416.112H1938.4" stroke="#FDDEC3" stroke-width="4"/>
<line x1="594" y1="390" x2="704" y2="390" stroke="#FDDEC3" stroke-width="4"/>
<line x1="1301.14" y1="390.107" x2="1387.58" y2="390" stroke="#FDDEC3" stroke-width="4"/>
<line x1="204.284" y1="47.0283" x2="239.998" y2="47" stroke="#FDDEC3" stroke-width="4"/>
<path d="M1756.07 67.4656H1719.42" stroke="#FDDEC3" stroke-width="4"/>
<path d="M943 49.7524H967.368" stroke="#FDDEC3" stroke-width="4"/>
<path d="M1576 57.647H1600.34" stroke="#FDDEC3" stroke-width="4"/>
<line x1="415" y1="87" x2="380" y2="87" stroke="#FDDEC3" stroke-width="4"/>
<path d="M1509.69 147.818H1540.9" stroke="#FDDEC3" stroke-width="4"/>
<path d="M1093.5 86H1059.17" stroke="#FDDEC3" stroke-width="4"/>
<path d="M1723.42 44.3137H1686.73" stroke="#FDDEC3" stroke-width="4"/>
<path d="M1576.4 83.7231H1540.55" stroke="#FDDEC3" stroke-width="4"/>
<line x1="898" y1="65" x2="945" y2="65" stroke="#FDDEC3" stroke-width="4"/>
<line x1="748" y1="327" x2="700" y2="327" stroke="#FDDEC3" stroke-width="4"/>
<path d="M1421.63 328.159H1383.64" stroke="#FDDEC3" stroke-width="4"/>
<line x1="104.141" y1="174.323" x2="104.141" y2="307.789" stroke="#FDDEC3" stroke-width="4"/>
<line x1="238.972" y1="21.79" x2="238.972" y2="49.028" stroke="#FDDEC3" stroke-width="4"/>
<line x1="1721.42" y1="43.5903" x2="1721.42" y2="69.4664" stroke="#FDDEC3" stroke-width="4"/>
<line x1="965.426" y1="21.79" x2="965.426" y2="51.7518" stroke="#FDDEC3" stroke-width="4"/>
<path d="M1598.5 20L1598.37 59.6477" stroke="#FDDEC3" stroke-width="4"/>
<line x1="514" y1="245" x2="514" y2="217" stroke="#FDDEC3" stroke-width="4"/>
<line x1="1841.35" y1="238.341" x2="1841.35" y2="192.037" stroke="#FDDEC3" stroke-width="4"/>
<line x1="1284.8" y1="319.351" x2="1284.8" y2="288.027" stroke="#FDDEC3" stroke-width="4"/>
<line x1="1921.7" y1="418.112" x2="1921.7" y2="374.532" stroke="#FDDEC3" stroke-width="4"/>
<line x1="2039.31" y1="375.867" x2="2013" y2="375.867" stroke="#FDDEC3" stroke-width="4"/>
<path d="M2090 353H2039" stroke="#FDDEC3" stroke-width="4"/>
<path d="M2038 378L2038 351" stroke="#FDDEC3" stroke-width="4"/>
<line x1="2015" y1="418.112" x2="2015" y2="374.532" stroke="#FDDEC3" stroke-width="4"/>
<line x1="380" y1="22" x2="380" y2="89.0036" stroke="#FDDEC3" stroke-width="4"/>
<line x1="1538.92" y1="81.7231" x2="1538.92" y2="149.818" stroke="#FDDEC3" stroke-width="4"/>
<path d="M1061.01 20.5L1061.18 87.2049" stroke="#FDDEC3" stroke-width="4"/>
<path d="M1688.73 20V44.9521" stroke="#FDDEC3" stroke-width="4"/>
<path d="M1299.7 316.729L1299.7 392.102" stroke="#FDDEC3" stroke-width="4"/>
<path d="M942.999 47.7708L942.999 67.0001" stroke="#FDDEC3" stroke-width="4"/>
<path d="M1574.4 55.6597L1574.4 85" stroke="#FDDEC3" stroke-width="4"/>
<line x1="702" y1="391.733" x2="702" y2="325" stroke="#FDDEC3" stroke-width="4"/>
<path d="M1385.58 392L1385.58 326.159" stroke="#FDDEC3" stroke-width="4"/>
<line x1="206.285" y1="44.9429" x2="206.285" y2="178.409" stroke="#FDDEC3" stroke-width="4"/>
<path d="M1754.1 65.5002L1754.1 196" stroke="#FDDEC3" stroke-width="4"/>
<path d="M592 392L592 241" stroke="#FDDEC3" stroke-width="4"/>
<line x1="1898.55" y1="377.85" x2="1898.55" y2="233.489" stroke="#FDDEC3" stroke-width="4"/>
<path d="M1169 153L1169 255" stroke="#FDDEC3" stroke-width="4"/>
<path d="M1238 251L1238 292" stroke="#FDDEC3" stroke-width="4"/>
<line x1="414.191" y1="84.9995" x2="414.191" y2="219" stroke="#FDDEC3" stroke-width="4"/>
<path d="M1511.69 146V227.5" stroke="#FDDEC3" stroke-width="4"/>
<path d="M1488 224.5L1488 283.5" stroke="#FDDEC3" stroke-width="4"/>
<path d="M1091.43 84.5L1091.43 157.265" stroke="#FDDEC3" stroke-width="4"/>
<line x1="900" y1="63" x2="900" y2="197.828" stroke="#FDDEC3" stroke-width="4"/>
<path d="M746 327.466V261" stroke="#FDDEC3" stroke-width="4"/>
<line x1="2209.7" y1="271" x2="2085.77" y2="271" stroke="#FDDEC3" stroke-width="4"/>
<line x1="2260.09" y1="271" x2="2217.87" y2="271" stroke="#FDDEC3" stroke-width="4"/>
<line x1="2288.69" y1="271" x2="2268.26" y2="271" stroke="#FDDEC3" stroke-width="4"/>
<path d="M1934.6 416.476H2017" stroke="#FDDEC3" stroke-width="4"/>
<path d="M2087.85 354L2087.85 269" stroke="#FDDEC3" stroke-width="4"/>
<line x1="1419.63" y1="328.883" x2="1419.63" y2="279.855" stroke="#FDDEC3" stroke-width="4"/>
<g clip-path="url(#clip0_1_2983)">
<path d="M300.979 16.6016H298.896V26.9799H300.979V16.6016Z" fill="#FDDEC3"/>
<path d="M298.896 26.9792H296.826V31.1333H298.896V26.9792Z" fill="#FDDEC3"/>
<path d="M298.896 12.4478H296.826V16.6018H298.896V12.4478Z" fill="#FDDEC3"/>
<path d="M296.826 31.1331H294.755V35.2735H296.826V31.1331Z" fill="#FDDEC3"/>
<path d="M296.826 16.6016H294.755V26.9799H296.826V16.6016Z" fill="#FDDEC3"/>
<path d="M296.826 8.30762H294.755V12.4481H296.826V8.30762Z" fill="#FDDEC3"/>
<path d="M294.756 35.2732H292.672V37.357H294.756V35.2732Z" fill="#FDDEC3"/>
<path d="M294.756 26.9792H292.672V31.1333H294.756V26.9792Z" fill="#FDDEC3"/>
<path d="M294.756 12.4478H292.672V16.6018H294.756V12.4478Z" fill="#FDDEC3"/>
<path d="M294.756 6.22388H292.672V8.30772H294.756V6.22388Z" fill="#FDDEC3"/>
<path d="M292.672 31.1331H290.602V33.2033H292.672V31.1331Z" fill="#FDDEC3"/>
<path d="M292.672 10.3777H290.602V12.4479H292.672V10.3777Z" fill="#FDDEC3"/>
<path d="M292.672 37.3569H288.518V39.4272H292.672V37.3569Z" fill="#FDDEC3"/>
<path d="M290.602 33.2031H288.518V35.2734H290.602V33.2031Z" fill="#FDDEC3"/>
<path d="M290.602 8.30762H288.518V10.3778H290.602V8.30762Z" fill="#FDDEC3"/>
<path d="M292.672 4.15381H288.518V6.22404H292.672V4.15381Z" fill="#FDDEC3"/>
<path d="M288.518 39.427H284.378V41.5108H288.518V39.427Z" fill="#FDDEC3"/>
<path d="M288.518 35.2732H284.378V37.357H288.518V35.2732Z" fill="#FDDEC3"/>
<path d="M288.518 6.22388H284.378V8.30772H288.518V6.22388Z" fill="#FDDEC3"/>
<path d="M288.518 2.07007H284.378V4.15391H288.518V2.07007Z" fill="#FDDEC3"/>
<path d="M284.378 41.5107H274V43.581H284.378V41.5107Z" fill="#FDDEC3"/>
<path d="M284.378 37.3569H274V39.4272H284.378V37.3569Z" fill="#FDDEC3"/>
<path d="M284.378 4.15381H274V6.22404H284.378V4.15381Z" fill="#FDDEC3"/>
<path d="M284.378 0H274V2.07023H284.378V0Z" fill="#FDDEC3"/>
<path d="M274 39.427H269.846V41.5108H274V39.427Z" fill="#FDDEC3"/>
<path d="M274 35.2732H269.846V37.357H274V35.2732Z" fill="#FDDEC3"/>
<path d="M274 6.22388H269.846V8.30772H274V6.22388Z" fill="#FDDEC3"/>
<path d="M269.847 8.30762H267.776V10.3778H269.847V8.30762Z" fill="#FDDEC3"/>
<path d="M274 2.07007H269.846V4.15391H274V2.07007Z" fill="#FDDEC3"/>
<path d="M269.847 37.3569H265.693V39.4272H269.847V37.3569Z" fill="#FDDEC3"/>
<path d="M269.846 33.2031H267.776V35.2734H269.846V33.2031Z" fill="#FDDEC3"/>
<path d="M269.847 4.15381H265.693V6.22404H269.847V4.15381Z" fill="#FDDEC3"/>
<path d="M267.776 31.1331H265.693V33.2033H267.776V31.1331Z" fill="#FDDEC3"/>
<path d="M267.776 10.3777H265.693V12.4479H267.776V10.3777Z" fill="#FDDEC3"/>
<path d="M265.693 35.2732H263.622V37.357H265.693V35.2732Z" fill="#FDDEC3"/>
<path d="M265.693 26.9792H263.622V31.1333H265.693V26.9792Z" fill="#FDDEC3"/>
<path d="M265.693 12.4478H263.622V16.6018H265.693V12.4478Z" fill="#FDDEC3"/>
<path d="M265.693 6.22388H263.622V8.30772H265.693V6.22388Z" fill="#FDDEC3"/>
<path d="M263.623 31.1331H261.552V35.2735H263.623V31.1331Z" fill="#FDDEC3"/>
<path d="M263.623 16.6016H261.552V26.9799H263.623V16.6016Z" fill="#FDDEC3"/>
<path d="M263.623 8.30762H261.552V12.4481H263.623V8.30762Z" fill="#FDDEC3"/>
<path d="M261.552 26.9792H259.469V31.1333H261.552V26.9792Z" fill="#FDDEC3"/>
<path d="M261.552 12.4478H259.469V16.6018H261.552V12.4478Z" fill="#FDDEC3"/>
<path d="M259.469 16.6016H257.399V26.9799H259.469V16.6016Z" fill="#FDDEC3"/>
</g>
<g clip-path="url(#clip1_1_2983)">
<path d="M656.581 384.602H654.497V394.98H656.581V384.602Z" fill="#FDDEC3"/>
<path d="M654.497 394.979H652.427V399.133H654.497V394.979Z" fill="#FDDEC3"/>
<path d="M654.497 380.448H652.427V384.602H654.497V380.448Z" fill="#FDDEC3"/>
<path d="M652.427 399.133H650.357V403.273H652.427V399.133Z" fill="#FDDEC3"/>
<path d="M652.427 384.602H650.357V394.98H652.427V384.602Z" fill="#FDDEC3"/>
<path d="M652.427 376.308H650.357V380.448H652.427V376.308Z" fill="#FDDEC3"/>
<path d="M650.357 403.273H648.273V405.357H650.357V403.273Z" fill="#FDDEC3"/>
<path d="M650.357 394.979H648.273V399.133H650.357V394.979Z" fill="#FDDEC3"/>
<path d="M650.357 380.448H648.273V384.602H650.357V380.448Z" fill="#FDDEC3"/>
<path d="M650.357 374.224H648.273V376.308H650.357V374.224Z" fill="#FDDEC3"/>
<path d="M648.273 399.133H646.203V401.203H648.273V399.133Z" fill="#FDDEC3"/>
<path d="M648.273 378.377H646.203V380.448H648.273V378.377Z" fill="#FDDEC3"/>
<path d="M648.273 405.357H644.119V407.427H648.273V405.357Z" fill="#FDDEC3"/>
<path d="M646.203 401.203H644.119V403.273H646.203V401.203Z" fill="#FDDEC3"/>
<path d="M646.203 376.308H644.119V378.378H646.203V376.308Z" fill="#FDDEC3"/>
<path d="M648.273 372.154H644.119V374.224H648.273V372.154Z" fill="#FDDEC3"/>
<path d="M644.12 407.427H639.979V409.511H644.12V407.427Z" fill="#FDDEC3"/>
<path d="M644.12 403.273H639.979V405.357H644.12V403.273Z" fill="#FDDEC3"/>
<path d="M644.12 374.224H639.979V376.308H644.12V374.224Z" fill="#FDDEC3"/>
<path d="M644.12 370.07H639.979V372.154H644.12V370.07Z" fill="#FDDEC3"/>
<path d="M639.98 409.511H629.602V411.581H639.98V409.511Z" fill="#FDDEC3"/>
<path d="M639.98 405.357H629.602V407.427H639.98V405.357Z" fill="#FDDEC3"/>
<path d="M639.98 372.154H629.602V374.224H639.98V372.154Z" fill="#FDDEC3"/>
<path d="M639.98 368H629.602V370.07H639.98V368Z" fill="#FDDEC3"/>
<path d="M629.602 407.427H625.448V409.511H629.602V407.427Z" fill="#FDDEC3"/>
<path d="M629.602 403.273H625.448V405.357H629.602V403.273Z" fill="#FDDEC3"/>
<path d="M629.602 374.224H625.448V376.308H629.602V374.224Z" fill="#FDDEC3"/>
<path d="M625.448 376.308H623.378V378.378H625.448V376.308Z" fill="#FDDEC3"/>
<path d="M629.602 370.07H625.448V372.154H629.602V370.07Z" fill="#FDDEC3"/>
<path d="M625.448 405.357H621.294V407.427H625.448V405.357Z" fill="#FDDEC3"/>
<path d="M625.448 401.203H623.378V403.273H625.448V401.203Z" fill="#FDDEC3"/>
<path d="M625.448 372.154H621.294V374.224H625.448V372.154Z" fill="#FDDEC3"/>
<path d="M623.378 399.133H621.294V401.203H623.378V399.133Z" fill="#FDDEC3"/>
<path d="M623.378 378.377H621.294V380.448H623.378V378.377Z" fill="#FDDEC3"/>
<path d="M621.294 403.273H619.224V405.357H621.294V403.273Z" fill="#FDDEC3"/>
<path d="M621.294 394.979H619.224V399.133H621.294V394.979Z" fill="#FDDEC3"/>
<path d="M621.294 380.448H619.224V384.602H621.294V380.448Z" fill="#FDDEC3"/>
<path d="M621.294 374.224H619.224V376.308H621.294V374.224Z" fill="#FDDEC3"/>
<path d="M619.224 399.133H617.154V403.273H619.224V399.133Z" fill="#FDDEC3"/>
<path d="M619.224 384.602H617.154V394.98H619.224V384.602Z" fill="#FDDEC3"/>
<path d="M619.224 376.308H617.154V380.448H619.224V376.308Z" fill="#FDDEC3"/>
<path d="M617.154 394.979H615.07V399.133H617.154V394.979Z" fill="#FDDEC3"/>
<path d="M617.154 380.448H615.07V384.602H617.154V380.448Z" fill="#FDDEC3"/>
<path d="M615.07 384.602H613V394.98H615.07V384.602Z" fill="#FDDEC3"/>
</g>
<g clip-path="url(#clip2_1_2983)">
<path d="M1358.72 384.602H1356.64V394.98H1358.72V384.602Z" fill="#FDDEC3"/>
<path d="M1356.64 394.979H1354.57V399.133H1356.64V394.979Z" fill="#FDDEC3"/>
<path d="M1356.64 380.448H1354.57V384.602H1356.64V380.448Z" fill="#FDDEC3"/>
<path d="M1354.57 399.133H1352.49V403.273H1354.57V399.133Z" fill="#FDDEC3"/>
<path d="M1354.57 384.602H1352.49V394.98H1354.57V384.602Z" fill="#FDDEC3"/>
<path d="M1354.57 376.308H1352.49V380.448H1354.57V376.308Z" fill="#FDDEC3"/>
<path d="M1352.5 403.273H1350.41V405.357H1352.5V403.273Z" fill="#FDDEC3"/>
<path d="M1352.5 394.979H1350.41V399.133H1352.5V394.979Z" fill="#FDDEC3"/>
<path d="M1352.5 380.448H1350.41V384.602H1352.5V380.448Z" fill="#FDDEC3"/>
<path d="M1352.5 374.224H1350.41V376.308H1352.5V374.224Z" fill="#FDDEC3"/>
<path d="M1350.41 399.133H1348.34V401.203H1350.41V399.133Z" fill="#FDDEC3"/>
<path d="M1350.41 378.377H1348.34V380.448H1350.41V378.377Z" fill="#FDDEC3"/>
<path d="M1350.41 405.357H1346.26V407.427H1350.41V405.357Z" fill="#FDDEC3"/>
<path d="M1348.34 401.203H1346.26V403.273H1348.34V401.203Z" fill="#FDDEC3"/>
<path d="M1348.34 376.308H1346.26V378.378H1348.34V376.308Z" fill="#FDDEC3"/>
<path d="M1350.41 372.154H1346.26V374.224H1350.41V372.154Z" fill="#FDDEC3"/>
<path d="M1346.26 407.427H1342.12V409.511H1346.26V407.427Z" fill="#FDDEC3"/>
<path d="M1346.26 403.273H1342.12V405.357H1346.26V403.273Z" fill="#FDDEC3"/>
<path d="M1346.26 374.224H1342.12V376.308H1346.26V374.224Z" fill="#FDDEC3"/>
<path d="M1346.26 370.07H1342.12V372.154H1346.26V370.07Z" fill="#FDDEC3"/>
<path d="M1342.12 409.511H1331.74V411.581H1342.12V409.511Z" fill="#FDDEC3"/>
<path d="M1342.12 405.357H1331.74V407.427H1342.12V405.357Z" fill="#FDDEC3"/>
<path d="M1342.12 372.154H1331.74V374.224H1342.12V372.154Z" fill="#FDDEC3"/>
<path d="M1342.12 368H1331.74V370.07H1342.12V368Z" fill="#FDDEC3"/>
<path d="M1331.74 407.427H1327.59V409.511H1331.74V407.427Z" fill="#FDDEC3"/>
<path d="M1331.74 403.273H1327.59V405.357H1331.74V403.273Z" fill="#FDDEC3"/>
<path d="M1331.74 374.224H1327.59V376.308H1331.74V374.224Z" fill="#FDDEC3"/>
<path d="M1327.59 376.308H1325.52V378.378H1327.59V376.308Z" fill="#FDDEC3"/>
<path d="M1331.74 370.07H1327.59V372.154H1331.74V370.07Z" fill="#FDDEC3"/>
<path d="M1327.59 405.357H1323.43V407.427H1327.59V405.357Z" fill="#FDDEC3"/>
<path d="M1327.59 401.203H1325.52V403.273H1327.59V401.203Z" fill="#FDDEC3"/>
<path d="M1327.59 372.154H1323.43V374.224H1327.59V372.154Z" fill="#FDDEC3"/>
<path d="M1325.52 399.133H1323.43V401.203H1325.52V399.133Z" fill="#FDDEC3"/>
<path d="M1325.52 378.377H1323.43V380.448H1325.52V378.377Z" fill="#FDDEC3"/>
<path d="M1323.43 403.273H1321.36V405.357H1323.43V403.273Z" fill="#FDDEC3"/>
<path d="M1323.43 394.979H1321.36V399.133H1323.43V394.979Z" fill="#FDDEC3"/>
<path d="M1323.43 380.448H1321.36V384.602H1323.43V380.448Z" fill="#FDDEC3"/>
<path d="M1323.43 374.224H1321.36V376.308H1323.43V374.224Z" fill="#FDDEC3"/>
<path d="M1321.36 399.133H1319.29V403.273H1321.36V399.133Z" fill="#FDDEC3"/>
<path d="M1321.36 384.602H1319.29V394.98H1321.36V384.602Z" fill="#FDDEC3"/>
<path d="M1321.36 376.308H1319.29V380.448H1321.36V376.308Z" fill="#FDDEC3"/>
<path d="M1319.29 394.979H1317.21V399.133H1319.29V394.979Z" fill="#FDDEC3"/>
<path d="M1319.29 380.448H1317.21V384.602H1319.29V380.448Z" fill="#FDDEC3"/>
<path d="M1317.21 384.602H1315.14V394.98H1317.21V384.602Z" fill="#FDDEC3"/>
</g>
<g clip-path="url(#clip3_1_2983)">
<path d="M1022.59 16.6016H1020.51V26.9799H1022.59V16.6016Z" fill="#FDDEC3"/>
<path d="M1020.51 26.9792H1018.44V31.1333H1020.51V26.9792Z" fill="#FDDEC3"/>
<path d="M1020.51 12.4478H1018.44V16.6018H1020.51V12.4478Z" fill="#FDDEC3"/>
<path d="M1018.44 31.1331H1016.37V35.2735H1018.44V31.1331Z" fill="#FDDEC3"/>
<path d="M1018.44 16.6016H1016.37V26.9799H1018.44V16.6016Z" fill="#FDDEC3"/>
<path d="M1018.44 8.30762H1016.37V12.4481H1018.44V8.30762Z" fill="#FDDEC3"/>
<path d="M1016.37 35.2732H1014.29V37.357H1016.37V35.2732Z" fill="#FDDEC3"/>
<path d="M1016.37 26.9792H1014.29V31.1333H1016.37V26.9792Z" fill="#FDDEC3"/>
<path d="M1016.37 12.4478H1014.29V16.6018H1016.37V12.4478Z" fill="#FDDEC3"/>
<path d="M1016.37 6.22388H1014.29V8.30772H1016.37V6.22388Z" fill="#FDDEC3"/>
<path d="M1014.29 31.1331H1012.22V33.2033H1014.29V31.1331Z" fill="#FDDEC3"/>
<path d="M1014.29 10.3777H1012.22V12.4479H1014.29V10.3777Z" fill="#FDDEC3"/>
<path d="M1014.29 37.3569H1010.13V39.4272H1014.29V37.3569Z" fill="#FDDEC3"/>
<path d="M1012.22 33.2031H1010.13V35.2734H1012.22V33.2031Z" fill="#FDDEC3"/>
<path d="M1012.22 8.30762H1010.13V10.3778H1012.22V8.30762Z" fill="#FDDEC3"/>
<path d="M1014.29 4.15381H1010.13V6.22404H1014.29V4.15381Z" fill="#FDDEC3"/>
<path d="M1010.13 39.427H1005.99V41.5108H1010.13V39.427Z" fill="#FDDEC3"/>
<path d="M1010.13 35.2732H1005.99V37.357H1010.13V35.2732Z" fill="#FDDEC3"/>
<path d="M1010.13 6.22388H1005.99V8.30772H1010.13V6.22388Z" fill="#FDDEC3"/>
<path d="M1010.13 2.07007H1005.99V4.15391H1010.13V2.07007Z" fill="#FDDEC3"/>
<path d="M1005.99 41.5107H995.614V43.581H1005.99V41.5107Z" fill="#FDDEC3"/>
<path d="M1005.99 37.3569H995.614V39.4272H1005.99V37.3569Z" fill="#FDDEC3"/>
<path d="M1005.99 4.15381H995.614V6.22404H1005.99V4.15381Z" fill="#FDDEC3"/>
<path d="M1005.99 0H995.614V2.07023H1005.99V0Z" fill="#FDDEC3"/>
<path d="M995.614 39.427H991.46V41.5108H995.614V39.427Z" fill="#FDDEC3"/>
<path d="M995.614 35.2732H991.46V37.357H995.614V35.2732Z" fill="#FDDEC3"/>
<path d="M995.614 6.22388H991.46V8.30772H995.614V6.22388Z" fill="#FDDEC3"/>
<path d="M991.461 8.30762H989.391V10.3778H991.461V8.30762Z" fill="#FDDEC3"/>
<path d="M995.614 2.07007H991.46V4.15391H995.614V2.07007Z" fill="#FDDEC3"/>
<path d="M991.461 37.3569H987.307V39.4272H991.461V37.3569Z" fill="#FDDEC3"/>
<path d="M991.461 33.2031H989.39V35.2734H991.461V33.2031Z" fill="#FDDEC3"/>
<path d="M991.461 4.15381H987.307V6.22404H991.461V4.15381Z" fill="#FDDEC3"/>
<path d="M989.39 31.1331H987.307V33.2033H989.39V31.1331Z" fill="#FDDEC3"/>
<path d="M989.39 10.3777H987.307V12.4479H989.39V10.3777Z" fill="#FDDEC3"/>
<path d="M987.307 35.2732H985.237V37.357H987.307V35.2732Z" fill="#FDDEC3"/>
<path d="M987.307 26.9792H985.237V31.1333H987.307V26.9792Z" fill="#FDDEC3"/>
<path d="M987.307 12.4478H985.237V16.6018H987.307V12.4478Z" fill="#FDDEC3"/>
<path d="M987.307 6.22388H985.237V8.30772H987.307V6.22388Z" fill="#FDDEC3"/>
<path d="M985.237 31.1331H983.166V35.2735H985.237V31.1331Z" fill="#FDDEC3"/>
<path d="M985.237 16.6016H983.166V26.9799H985.237V16.6016Z" fill="#FDDEC3"/>
<path d="M985.237 8.30762H983.166V12.4481H985.237V8.30762Z" fill="#FDDEC3"/>
<path d="M983.167 26.9792H981.083V31.1333H983.167V26.9792Z" fill="#FDDEC3"/>
<path d="M983.167 12.4478H981.083V16.6018H983.167V12.4478Z" fill="#FDDEC3"/>
<path d="M981.083 16.6016H979.013V26.9799H981.083V16.6016Z" fill="#FDDEC3"/>
</g>
<g clip-path="url(#clip4_1_2983)">
<path d="M1657.58 16.6016H1655.5V26.9799H1657.58V16.6016Z" fill="#FDDEC3"/>
<path d="M1655.5 26.9792H1653.43V31.1333H1655.5V26.9792Z" fill="#FDDEC3"/>
<path d="M1655.5 12.4478H1653.43V16.6018H1655.5V12.4478Z" fill="#FDDEC3"/>
<path d="M1653.43 31.1331H1651.36V35.2735H1653.43V31.1331Z" fill="#FDDEC3"/>
<path d="M1653.43 16.6016H1651.36V26.9799H1653.43V16.6016Z" fill="#FDDEC3"/>
<path d="M1653.43 8.30762H1651.36V12.4481H1653.43V8.30762Z" fill="#FDDEC3"/>
<path d="M1651.36 35.2732H1649.27V37.357H1651.36V35.2732Z" fill="#FDDEC3"/>
<path d="M1651.36 26.9792H1649.27V31.1333H1651.36V26.9792Z" fill="#FDDEC3"/>
<path d="M1651.36 12.4478H1649.27V16.6018H1651.36V12.4478Z" fill="#FDDEC3"/>
<path d="M1651.36 6.22388H1649.27V8.30772H1651.36V6.22388Z" fill="#FDDEC3"/>
<path d="M1649.27 31.1331H1647.2V33.2033H1649.27V31.1331Z" fill="#FDDEC3"/>
<path d="M1649.27 10.3777H1647.2V12.4479H1649.27V10.3777Z" fill="#FDDEC3"/>
<path d="M1649.27 37.3569H1645.12V39.4272H1649.27V37.3569Z" fill="#FDDEC3"/>
<path d="M1647.2 33.2031H1645.12V35.2734H1647.2V33.2031Z" fill="#FDDEC3"/>
<path d="M1647.2 8.30762H1645.12V10.3778H1647.2V8.30762Z" fill="#FDDEC3"/>
<path d="M1649.27 4.15381H1645.12V6.22404H1649.27V4.15381Z" fill="#FDDEC3"/>
<path d="M1645.12 39.427H1640.98V41.5108H1645.12V39.427Z" fill="#FDDEC3"/>
<path d="M1645.12 35.2732H1640.98V37.357H1645.12V35.2732Z" fill="#FDDEC3"/>
<path d="M1645.12 6.22388H1640.98V8.30772H1645.12V6.22388Z" fill="#FDDEC3"/>
<path d="M1645.12 2.07007H1640.98V4.15391H1645.12V2.07007Z" fill="#FDDEC3"/>
<path d="M1640.98 41.5107H1630.6V43.581H1640.98V41.5107Z" fill="#FDDEC3"/>
<path d="M1640.98 37.3569H1630.6V39.4272H1640.98V37.3569Z" fill="#FDDEC3"/>
<path d="M1640.98 4.15381H1630.6V6.22404H1640.98V4.15381Z" fill="#FDDEC3"/>
<path d="M1640.98 0H1630.6V2.07023H1640.98V0Z" fill="#FDDEC3"/>
<path d="M1630.6 39.427H1626.45V41.5108H1630.6V39.427Z" fill="#FDDEC3"/>
<path d="M1630.6 35.2732H1626.45V37.357H1630.6V35.2732Z" fill="#FDDEC3"/>
<path d="M1630.6 6.22388H1626.45V8.30772H1630.6V6.22388Z" fill="#FDDEC3"/>
<path d="M1626.45 8.30762H1624.38V10.3778H1626.45V8.30762Z" fill="#FDDEC3"/>
<path d="M1630.6 2.07007H1626.45V4.15391H1630.6V2.07007Z" fill="#FDDEC3"/>
<path d="M1626.45 37.3569H1622.29V39.4272H1626.45V37.3569Z" fill="#FDDEC3"/>
<path d="M1626.45 33.2031H1624.38V35.2734H1626.45V33.2031Z" fill="#FDDEC3"/>
<path d="M1626.45 4.15381H1622.29V6.22404H1626.45V4.15381Z" fill="#FDDEC3"/>
<path d="M1624.38 31.1331H1622.29V33.2033H1624.38V31.1331Z" fill="#FDDEC3"/>
<path d="M1624.38 10.3777H1622.29V12.4479H1624.38V10.3777Z" fill="#FDDEC3"/>
<path d="M1622.29 35.2732H1620.22V37.357H1622.29V35.2732Z" fill="#FDDEC3"/>
<path d="M1622.29 26.9792H1620.22V31.1333H1622.29V26.9792Z" fill="#FDDEC3"/>
<path d="M1622.29 12.4478H1620.22V16.6018H1622.29V12.4478Z" fill="#FDDEC3"/>
<path d="M1622.29 6.22388H1620.22V8.30772H1622.29V6.22388Z" fill="#FDDEC3"/>
<path d="M1620.22 31.1331H1618.15V35.2735H1620.22V31.1331Z" fill="#FDDEC3"/>
<path d="M1620.22 16.6016H1618.15V26.9799H1620.22V16.6016Z" fill="#FDDEC3"/>
<path d="M1620.22 8.30762H1618.15V12.4481H1620.22V8.30762Z" fill="#FDDEC3"/>
<path d="M1618.15 26.9792H1616.07V31.1333H1618.15V26.9792Z" fill="#FDDEC3"/>
<path d="M1618.15 12.4478H1616.07V16.6018H1618.15V12.4478Z" fill="#FDDEC3"/>
<path d="M1616.07 16.6016H1614V26.9799H1616.07V16.6016Z" fill="#FDDEC3"/>
</g>
<line x1="847" y1="263" x2="748" y2="263" stroke="#FDDEC3" stroke-width="4"/>
<path d="M845 194L845 264" stroke="#FDDEC3" stroke-width="4"/>
<defs>
<clipPath id="clip0_1_2983">
<rect width="43.5808" height="43.5808" fill="white" transform="translate(257.399)"/>
</clipPath>
<clipPath id="clip1_1_2983">
<rect width="43.5808" height="43.5808" fill="white" transform="translate(613 368)"/>
</clipPath>
<clipPath id="clip2_1_2983">
<rect width="43.5808" height="43.5808" fill="white" transform="translate(1315.14 368)"/>
</clipPath>
<clipPath id="clip3_1_2983">
<rect width="43.5808" height="43.5808" fill="white" transform="translate(979.013)"/>
</clipPath>
<clipPath id="clip4_1_2983">
<rect width="43.5808" height="43.5808" fill="white" transform="translate(1614)"/>
</clipPath>
</defs>
</svg>
