<svg width="2289" height="269" viewBox="0 0 2289 269" fill="none" xmlns="http://www.w3.org/2000/svg">
<line y1="224.789" x2="103.504" y2="224.789" stroke="#28232E" stroke-width="4"/>
<line x1="103.505" y1="95.4087" x2="208.371" y2="95.4087" stroke="#28232E" stroke-width="4"/>
<line x1="516" y1="136" x2="455" y2="136" stroke="#28232E" stroke-width="4"/>
<path d="M1262.25 152.973L1236 152.973" stroke="#28232E" stroke-width="4"/>
<path d="M1239.5 135L1171 135" stroke="#28232E" stroke-width="4"/>
<line x1="1843.35" y1="113.037" x2="1752.1" y2="113.037" stroke="#28232E" stroke-width="4"/>
<path d="M1286.8 153L1260 153" stroke="#28232E" stroke-width="4"/>
<line x1="1923.71" y1="223.867" x2="1897.4" y2="223.867" stroke="#28232E" stroke-width="4"/>
<line y1="-2" x2="46" y2="-2" transform="matrix(-1 0 0 1 459 138)" stroke="#28232E" stroke-width="4"/>
<line y1="-2" x2="77.6283" y2="-2" transform="matrix(-1 0 0 1 1167.63 110.766)" stroke="#28232E" stroke-width="4"/>
<path d="M843 137.5L902 137.5" stroke="#28232E" stroke-width="4"/>
<path d="M1490 125H1420.27" stroke="#28232E" stroke-width="4"/>
<path d="M1513.69 98.5H1486" stroke="#28232E" stroke-width="4"/>
<line x1="236.972" y1="22.7573" x2="382.001" y2="22.7573" stroke="#28232E" stroke-width="4"/>
<path d="M1595 23H1688.95" stroke="#28232E" stroke-width="4"/>
<line x1="512" y1="162" x2="593.714" y2="162" stroke="#28232E" stroke-width="4"/>
<path d="M1839.4 155.341L1900.55 155.341" stroke="#28232E" stroke-width="4"/>
<path d="M1285.44 176H1301.69" stroke="#28232E" stroke-width="4"/>
<line x1="594" y1="247" x2="704" y2="247" stroke="#28232E" stroke-width="4"/>
<line x1="1303.44" y1="246.948" x2="1389.88" y2="246.84" stroke="#28232E" stroke-width="4"/>
<line x1="204.284" y1="47.0283" x2="239.998" y2="47" stroke="#28232E" stroke-width="4"/>
<path d="M1756 48H1718.45" stroke="#28232E" stroke-width="4"/>
<path d="M1574.45 41H1598.79" stroke="#28232E" stroke-width="4"/>
<line x1="415" y1="71" x2="380" y2="71" stroke="#28232E" stroke-width="4"/>
<path d="M1509.69 66.8184H1540.9" stroke="#28232E" stroke-width="4"/>
<path d="M1721.87 36H1685.18" stroke="#28232E" stroke-width="4"/>
<path d="M1574.85 52.7231H1539" stroke="#28232E" stroke-width="4"/>
<line x1="748" y1="215" x2="700" y2="215" stroke="#28232E" stroke-width="4"/>
<path d="M1421.63 165H1386" stroke="#28232E" stroke-width="4"/>
<line x1="104.141" y1="93.3232" x2="104.141" y2="226.789" stroke="#28232E" stroke-width="4"/>
<path d="M238.972 21.7622L238.972 49.0002" stroke="#28232E" stroke-width="4"/>
<path d="M1720.45 34L1720.45 48" stroke="#28232E" stroke-width="4"/>
<path d="M1596.95 21V40.5" stroke="#28232E" stroke-width="4"/>
<line x1="514" y1="164" x2="514" y2="136" stroke="#28232E" stroke-width="4"/>
<line x1="1841.35" y1="157.341" x2="1841.35" y2="111.037" stroke="#28232E" stroke-width="4"/>
<path d="M1284.8 178V151" stroke="#28232E" stroke-width="4"/>
<line x1="1921.7" y1="266.112" x2="1921.7" y2="222.532" stroke="#28232E" stroke-width="4"/>
<line x1="2039.31" y1="223.867" x2="2013" y2="223.867" stroke="#28232E" stroke-width="4"/>
<path d="M2090 201H2039" stroke="#28232E" stroke-width="4"/>
<path d="M2038 226L2038 199" stroke="#28232E" stroke-width="4"/>
<line x1="2015" y1="266.112" x2="2015" y2="222.532" stroke="#28232E" stroke-width="4"/>
<path d="M380 23.5V73.0036" stroke="#28232E" stroke-width="4"/>
<path d="M1538.92 50.5L1538.92 68.8181" stroke="#28232E" stroke-width="4"/>
<path d="M1687.18 21V36.5" stroke="#28232E" stroke-width="4"/>
<path d="M1302 174L1302 248.943" stroke="#28232E" stroke-width="4"/>
<path d="M1572.85 39L1572.85 54" stroke="#28232E" stroke-width="4"/>
<path d="M702 248L702 213" stroke="#28232E" stroke-width="4"/>
<path d="M1387.88 248.84L1387.88 164.5" stroke="#28232E" stroke-width="4"/>
<path d="M206.285 49L206.285 97" stroke="#28232E" stroke-width="4"/>
<path d="M1754.1 49.5L1754.1 115" stroke="#28232E" stroke-width="4"/>
<path d="M592.001 249L592 160" stroke="#28232E" stroke-width="4"/>
<path d="M1899 226L1899 153.35" stroke="#28232E" stroke-width="4"/>
<path d="M1169 136.5L1169 106.8" stroke="#28232E" stroke-width="4"/>
<path d="M1238 133L1238 154.5" stroke="#28232E" stroke-width="4"/>
<path d="M414.191 70L414.191 138" stroke="#28232E" stroke-width="4"/>
<path d="M1511.69 65.5L1511.69 98.5" stroke="#28232E" stroke-width="4"/>
<path d="M1488 97V125.5" stroke="#28232E" stroke-width="4"/>
<path d="M1092 84L1092 110.765" stroke="#28232E" stroke-width="4"/>
<path d="M900 63.1616L900 139.328" stroke="#28232E" stroke-width="4"/>
<path d="M746 213L746 180" stroke="#28232E" stroke-width="4"/>
<line x1="2209.7" y1="190" x2="2085.77" y2="190" stroke="#28232E" stroke-width="4"/>
<line x1="2260.09" y1="190" x2="2217.87" y2="190" stroke="#28232E" stroke-width="4"/>
<line x1="2288.69" y1="190" x2="2268.26" y2="190" stroke="#28232E" stroke-width="4"/>
<path d="M1919.5 264.476H2017" stroke="#28232E" stroke-width="4"/>
<path d="M2087.85 203L2087.86 188" stroke="#28232E" stroke-width="4"/>
<path d="M1419.63 165L1419.63 123" stroke="#28232E" stroke-width="4"/>
<g clip-path="url(#clip0_15_5244)">
<path d="M300.979 16.6016H298.896V26.9799H300.979V16.6016Z" fill="#28232E"/>
<path d="M298.896 26.979H296.826V31.1331H298.896V26.979Z" fill="#28232E"/>
<path d="M298.896 12.4478H296.826V16.6018H298.896V12.4478Z" fill="#28232E"/>
<path d="M296.826 31.1328H294.755V35.2733H296.826V31.1328Z" fill="#28232E"/>
<path d="M296.826 16.6016H294.755V26.9799H296.826V16.6016Z" fill="#28232E"/>
<path d="M296.826 8.30762H294.755V12.4481H296.826V8.30762Z" fill="#28232E"/>
<path d="M294.756 35.2729H292.672V37.3568H294.756V35.2729Z" fill="#28232E"/>
<path d="M294.756 26.979H292.672V31.1331H294.756V26.979Z" fill="#28232E"/>
<path d="M294.756 12.4478H292.672V16.6018H294.756V12.4478Z" fill="#28232E"/>
<path d="M294.756 6.22412H292.672V8.30797H294.756V6.22412Z" fill="#28232E"/>
<path d="M292.672 31.1328H290.602V33.203H292.672V31.1328Z" fill="#28232E"/>
<path d="M292.672 10.3774H290.602V12.4477H292.672V10.3774Z" fill="#28232E"/>
<path d="M292.672 37.3569H288.518V39.4272H292.672V37.3569Z" fill="#28232E"/>
<path d="M290.602 33.2031H288.518V35.2734H290.602V33.2031Z" fill="#28232E"/>
<path d="M290.602 8.30762H288.518V10.3778H290.602V8.30762Z" fill="#28232E"/>
<path d="M292.672 4.15381H288.518V6.22404H292.672V4.15381Z" fill="#28232E"/>
<path d="M288.518 39.4268H284.378V41.5106H288.518V39.4268Z" fill="#28232E"/>
<path d="M288.518 35.2729H284.378V37.3568H288.518V35.2729Z" fill="#28232E"/>
<path d="M288.518 6.22412H284.378V8.30797H288.518V6.22412Z" fill="#28232E"/>
<path d="M288.518 2.07031H284.378V4.15416H288.518V2.07031Z" fill="#28232E"/>
<path d="M284.378 41.5107H274V43.581H284.378V41.5107Z" fill="#28232E"/>
<path d="M284.378 37.3569H274V39.4272H284.378V37.3569Z" fill="#28232E"/>
<path d="M284.378 4.15381H274V6.22404H284.378V4.15381Z" fill="#28232E"/>
<path d="M284.378 0H274V2.07023H284.378V0Z" fill="#28232E"/>
<path d="M274 39.4268H269.846V41.5106H274V39.4268Z" fill="#28232E"/>
<path d="M274 35.2729H269.846V37.3568H274V35.2729Z" fill="#28232E"/>
<path d="M274 6.22412H269.846V8.30797H274V6.22412Z" fill="#28232E"/>
<path d="M269.847 8.30762H267.776V10.3778H269.847V8.30762Z" fill="#28232E"/>
<path d="M274 2.07031H269.846V4.15416H274V2.07031Z" fill="#28232E"/>
<path d="M269.847 37.3569H265.693V39.4272H269.847V37.3569Z" fill="#28232E"/>
<path d="M269.846 33.2031H267.776V35.2734H269.846V33.2031Z" fill="#28232E"/>
<path d="M269.847 4.15381H265.693V6.22404H269.847V4.15381Z" fill="#28232E"/>
<path d="M267.776 31.1328H265.693V33.203H267.776V31.1328Z" fill="#28232E"/>
<path d="M267.776 10.3774H265.693V12.4477H267.776V10.3774Z" fill="#28232E"/>
<path d="M265.693 35.2729H263.622V37.3568H265.693V35.2729Z" fill="#28232E"/>
<path d="M265.693 26.979H263.622V31.1331H265.693V26.979Z" fill="#28232E"/>
<path d="M265.693 12.4478H263.622V16.6018H265.693V12.4478Z" fill="#28232E"/>
<path d="M265.693 6.22412H263.622V8.30797H265.693V6.22412Z" fill="#28232E"/>
<path d="M263.623 31.1328H261.552V35.2733H263.623V31.1328Z" fill="#28232E"/>
<path d="M263.623 16.6016H261.552V26.9799H263.623V16.6016Z" fill="#28232E"/>
<path d="M263.623 8.30762H261.552V12.4481H263.623V8.30762Z" fill="#28232E"/>
<path d="M261.552 26.979H259.469V31.1331H261.552V26.979Z" fill="#28232E"/>
<path d="M261.552 12.4478H259.469V16.6018H261.552V12.4478Z" fill="#28232E"/>
<path d="M259.469 16.6016H257.399V26.9799H259.469V16.6016Z" fill="#28232E"/>
</g>
<g clip-path="url(#clip1_15_5244)">
<path d="M656.581 241.602H654.497V251.98H656.581V241.602Z" fill="#28232E"/>
<path d="M654.497 251.979H652.427V256.133H654.497V251.979Z" fill="#28232E"/>
<path d="M654.497 237.448H652.427V241.602H654.497V237.448Z" fill="#28232E"/>
<path d="M652.427 256.133H650.357V260.273H652.427V256.133Z" fill="#28232E"/>
<path d="M652.427 241.602H650.357V251.98H652.427V241.602Z" fill="#28232E"/>
<path d="M652.427 233.308H650.357V237.448H652.427V233.308Z" fill="#28232E"/>
<path d="M650.357 260.273H648.273V262.357H650.357V260.273Z" fill="#28232E"/>
<path d="M650.357 251.979H648.273V256.133H650.357V251.979Z" fill="#28232E"/>
<path d="M650.357 237.448H648.273V241.602H650.357V237.448Z" fill="#28232E"/>
<path d="M650.357 231.224H648.273V233.308H650.357V231.224Z" fill="#28232E"/>
<path d="M648.273 256.133H646.203V258.203H648.273V256.133Z" fill="#28232E"/>
<path d="M648.273 235.377H646.203V237.448H648.273V235.377Z" fill="#28232E"/>
<path d="M648.273 262.357H644.119V264.427H648.273V262.357Z" fill="#28232E"/>
<path d="M646.203 258.203H644.119V260.273H646.203V258.203Z" fill="#28232E"/>
<path d="M646.203 233.308H644.119V235.378H646.203V233.308Z" fill="#28232E"/>
<path d="M648.273 229.154H644.119V231.224H648.273V229.154Z" fill="#28232E"/>
<path d="M644.12 264.427H639.979V266.511H644.12V264.427Z" fill="#28232E"/>
<path d="M644.12 260.273H639.979V262.357H644.12V260.273Z" fill="#28232E"/>
<path d="M644.12 231.224H639.979V233.308H644.12V231.224Z" fill="#28232E"/>
<path d="M644.12 227.07H639.979V229.154H644.12V227.07Z" fill="#28232E"/>
<path d="M639.98 266.511H629.602V268.581H639.98V266.511Z" fill="#28232E"/>
<path d="M639.98 262.357H629.602V264.427H639.98V262.357Z" fill="#28232E"/>
<path d="M639.98 229.154H629.602V231.224H639.98V229.154Z" fill="#28232E"/>
<path d="M639.98 225H629.602V227.07H639.98V225Z" fill="#28232E"/>
<path d="M629.602 264.427H625.448V266.511H629.602V264.427Z" fill="#28232E"/>
<path d="M629.602 260.273H625.448V262.357H629.602V260.273Z" fill="#28232E"/>
<path d="M629.602 231.224H625.448V233.308H629.602V231.224Z" fill="#28232E"/>
<path d="M625.448 233.308H623.378V235.378H625.448V233.308Z" fill="#28232E"/>
<path d="M629.602 227.07H625.448V229.154H629.602V227.07Z" fill="#28232E"/>
<path d="M625.448 262.357H621.294V264.427H625.448V262.357Z" fill="#28232E"/>
<path d="M625.448 258.203H623.378V260.273H625.448V258.203Z" fill="#28232E"/>
<path d="M625.448 229.154H621.294V231.224H625.448V229.154Z" fill="#28232E"/>
<path d="M623.378 256.133H621.294V258.203H623.378V256.133Z" fill="#28232E"/>
<path d="M623.378 235.377H621.294V237.448H623.378V235.377Z" fill="#28232E"/>
<path d="M621.294 260.273H619.224V262.357H621.294V260.273Z" fill="#28232E"/>
<path d="M621.294 251.979H619.224V256.133H621.294V251.979Z" fill="#28232E"/>
<path d="M621.294 237.448H619.224V241.602H621.294V237.448Z" fill="#28232E"/>
<path d="M621.294 231.224H619.224V233.308H621.294V231.224Z" fill="#28232E"/>
<path d="M619.224 256.133H617.154V260.273H619.224V256.133Z" fill="#28232E"/>
<path d="M619.224 241.602H617.154V251.98H619.224V241.602Z" fill="#28232E"/>
<path d="M619.224 233.308H617.154V237.448H619.224V233.308Z" fill="#28232E"/>
<path d="M617.154 251.979H615.07V256.133H617.154V251.979Z" fill="#28232E"/>
<path d="M617.154 237.448H615.07V241.602H617.154V237.448Z" fill="#28232E"/>
<path d="M615.07 241.602H613V251.98H615.07V241.602Z" fill="#28232E"/>
</g>
<g clip-path="url(#clip2_15_5244)">
<path d="M1361.02 241.442H1358.94V251.82H1361.02V241.442Z" fill="#28232E"/>
<path d="M1358.94 251.819H1356.87V255.973H1358.94V251.819Z" fill="#28232E"/>
<path d="M1358.94 237.288H1356.87V241.442H1358.94V237.288Z" fill="#28232E"/>
<path d="M1356.87 255.973H1354.8V260.114H1356.87V255.973Z" fill="#28232E"/>
<path d="M1356.87 241.442H1354.8V251.82H1356.87V241.442Z" fill="#28232E"/>
<path d="M1356.87 233.148H1354.8V237.288H1356.87V233.148Z" fill="#28232E"/>
<path d="M1354.8 260.113H1352.72V262.197H1354.8V260.113Z" fill="#28232E"/>
<path d="M1354.8 251.819H1352.72V255.973H1354.8V251.819Z" fill="#28232E"/>
<path d="M1354.8 237.288H1352.72V241.442H1354.8V237.288Z" fill="#28232E"/>
<path d="M1354.8 231.064H1352.72V233.148H1354.8V231.064Z" fill="#28232E"/>
<path d="M1352.72 255.973H1350.65V258.043H1352.72V255.973Z" fill="#28232E"/>
<path d="M1352.72 235.218H1350.65V237.288H1352.72V235.218Z" fill="#28232E"/>
<path d="M1352.72 262.197H1348.56V264.267H1352.72V262.197Z" fill="#28232E"/>
<path d="M1350.65 258.043H1348.56V260.114H1350.65V258.043Z" fill="#28232E"/>
<path d="M1350.65 233.148H1348.56V235.218H1350.65V233.148Z" fill="#28232E"/>
<path d="M1352.72 228.994H1348.56V231.064H1352.72V228.994Z" fill="#28232E"/>
<path d="M1348.56 264.267H1344.42V266.351H1348.56V264.267Z" fill="#28232E"/>
<path d="M1348.56 260.113H1344.42V262.197H1348.56V260.113Z" fill="#28232E"/>
<path d="M1348.56 231.064H1344.42V233.148H1348.56V231.064Z" fill="#28232E"/>
<path d="M1348.56 226.911H1344.42V228.994H1348.56V226.911Z" fill="#28232E"/>
<path d="M1344.42 266.351H1334.04V268.421H1344.42V266.351Z" fill="#28232E"/>
<path d="M1344.42 262.197H1334.04V264.267H1344.42V262.197Z" fill="#28232E"/>
<path d="M1344.42 228.994H1334.04V231.064H1344.42V228.994Z" fill="#28232E"/>
<path d="M1344.42 224.84H1334.04V226.911H1344.42V224.84Z" fill="#28232E"/>
<path d="M1334.04 264.267H1329.89V266.351H1334.04V264.267Z" fill="#28232E"/>
<path d="M1334.04 260.113H1329.89V262.197H1334.04V260.113Z" fill="#28232E"/>
<path d="M1334.04 231.064H1329.89V233.148H1334.04V231.064Z" fill="#28232E"/>
<path d="M1329.89 233.148H1327.82V235.218H1329.89V233.148Z" fill="#28232E"/>
<path d="M1334.04 226.911H1329.89V228.994H1334.04V226.911Z" fill="#28232E"/>
<path d="M1329.89 262.197H1325.74V264.267H1329.89V262.197Z" fill="#28232E"/>
<path d="M1329.89 258.043H1327.82V260.114H1329.89V258.043Z" fill="#28232E"/>
<path d="M1329.89 228.994H1325.74V231.064H1329.89V228.994Z" fill="#28232E"/>
<path d="M1327.82 255.973H1325.74V258.043H1327.82V255.973Z" fill="#28232E"/>
<path d="M1327.82 235.218H1325.74V237.288H1327.82V235.218Z" fill="#28232E"/>
<path d="M1325.74 260.113H1323.67V262.197H1325.74V260.113Z" fill="#28232E"/>
<path d="M1325.74 251.819H1323.67V255.973H1325.74V251.819Z" fill="#28232E"/>
<path d="M1325.74 237.288H1323.67V241.442H1325.74V237.288Z" fill="#28232E"/>
<path d="M1325.74 231.064H1323.67V233.148H1325.74V231.064Z" fill="#28232E"/>
<path d="M1323.67 255.973H1321.6V260.114H1323.67V255.973Z" fill="#28232E"/>
<path d="M1323.67 241.442H1321.6V251.82H1323.67V241.442Z" fill="#28232E"/>
<path d="M1323.67 233.148H1321.6V237.288H1323.67V233.148Z" fill="#28232E"/>
<path d="M1321.6 251.819H1319.51V255.973H1321.6V251.819Z" fill="#28232E"/>
<path d="M1321.6 237.288H1319.51V241.442H1321.6V237.288Z" fill="#28232E"/>
<path d="M1319.51 241.442H1317.44V251.82H1319.51V241.442Z" fill="#28232E"/>
</g>
<g clip-path="url(#clip3_15_5244)">
<path d="M1656.03 17.6016H1653.95V27.9799H1656.03V17.6016Z" fill="#28232E"/>
<path d="M1653.95 27.979H1651.88V32.1331H1653.95V27.979Z" fill="#28232E"/>
<path d="M1653.95 13.4478H1651.88V17.6018H1653.95V13.4478Z" fill="#28232E"/>
<path d="M1651.88 32.1328H1649.81V36.2733H1651.88V32.1328Z" fill="#28232E"/>
<path d="M1651.88 17.6016H1649.81V27.9799H1651.88V17.6016Z" fill="#28232E"/>
<path d="M1651.88 9.30762H1649.81V13.4481H1651.88V9.30762Z" fill="#28232E"/>
<path d="M1649.81 36.2729H1647.72V38.3568H1649.81V36.2729Z" fill="#28232E"/>
<path d="M1649.81 27.979H1647.72V32.1331H1649.81V27.979Z" fill="#28232E"/>
<path d="M1649.81 13.4478H1647.72V17.6018H1649.81V13.4478Z" fill="#28232E"/>
<path d="M1649.81 7.22412H1647.72V9.30797H1649.81V7.22412Z" fill="#28232E"/>
<path d="M1647.72 32.1328H1645.65V34.203H1647.72V32.1328Z" fill="#28232E"/>
<path d="M1647.72 11.3774H1645.65V13.4477H1647.72V11.3774Z" fill="#28232E"/>
<path d="M1647.72 38.3569H1643.57V40.4272H1647.72V38.3569Z" fill="#28232E"/>
<path d="M1645.65 34.2031H1643.57V36.2734H1645.65V34.2031Z" fill="#28232E"/>
<path d="M1645.65 9.30762H1643.57V11.3778H1645.65V9.30762Z" fill="#28232E"/>
<path d="M1647.72 5.15381H1643.57V7.22404H1647.72V5.15381Z" fill="#28232E"/>
<path d="M1643.57 40.4268H1639.43V42.5106H1643.57V40.4268Z" fill="#28232E"/>
<path d="M1643.57 36.2729H1639.43V38.3568H1643.57V36.2729Z" fill="#28232E"/>
<path d="M1643.57 7.22412H1639.43V9.30797H1643.57V7.22412Z" fill="#28232E"/>
<path d="M1643.57 3.07031H1639.43V5.15416H1643.57V3.07031Z" fill="#28232E"/>
<path d="M1639.43 42.5107H1629.05V44.581H1639.43V42.5107Z" fill="#28232E"/>
<path d="M1639.43 38.3569H1629.05V40.4272H1639.43V38.3569Z" fill="#28232E"/>
<path d="M1639.43 5.15381H1629.05V7.22404H1639.43V5.15381Z" fill="#28232E"/>
<path d="M1639.43 1H1629.05V3.07023H1639.43V1Z" fill="#28232E"/>
<path d="M1629.05 40.4268H1624.9V42.5106H1629.05V40.4268Z" fill="#28232E"/>
<path d="M1629.05 36.2729H1624.9V38.3568H1629.05V36.2729Z" fill="#28232E"/>
<path d="M1629.05 7.22412H1624.9V9.30797H1629.05V7.22412Z" fill="#28232E"/>
<path d="M1624.9 9.30762H1622.83V11.3778H1624.9V9.30762Z" fill="#28232E"/>
<path d="M1629.05 3.07031H1624.9V5.15416H1629.05V3.07031Z" fill="#28232E"/>
<path d="M1624.9 38.3569H1620.75V40.4272H1624.9V38.3569Z" fill="#28232E"/>
<path d="M1624.9 34.2031H1622.83V36.2734H1624.9V34.2031Z" fill="#28232E"/>
<path d="M1624.9 5.15381H1620.75V7.22404H1624.9V5.15381Z" fill="#28232E"/>
<path d="M1622.83 32.1328H1620.75V34.203H1622.83V32.1328Z" fill="#28232E"/>
<path d="M1622.83 11.3774H1620.75V13.4477H1622.83V11.3774Z" fill="#28232E"/>
<path d="M1620.75 36.2729H1618.68V38.3568H1620.75V36.2729Z" fill="#28232E"/>
<path d="M1620.75 27.979H1618.68V32.1331H1620.75V27.979Z" fill="#28232E"/>
<path d="M1620.75 13.4478H1618.68V17.6018H1620.75V13.4478Z" fill="#28232E"/>
<path d="M1620.75 7.22412H1618.68V9.30797H1620.75V7.22412Z" fill="#28232E"/>
<path d="M1618.68 32.1328H1616.61V36.2733H1618.68V32.1328Z" fill="#28232E"/>
<path d="M1618.68 17.6016H1616.61V27.9799H1618.68V17.6016Z" fill="#28232E"/>
<path d="M1618.68 9.30762H1616.61V13.4481H1618.68V9.30762Z" fill="#28232E"/>
<path d="M1616.61 27.979H1614.52V32.1331H1616.61V27.979Z" fill="#28232E"/>
<path d="M1616.61 13.4478H1614.52V17.6018H1616.61V13.4478Z" fill="#28232E"/>
<path d="M1614.52 17.6016H1612.45V27.9799H1614.52V17.6016Z" fill="#28232E"/>
</g>
<line x1="847" y1="182" x2="748" y2="182" stroke="#28232E" stroke-width="4"/>
<path d="M845 138.5L845 183" stroke="#28232E" stroke-width="4"/>
<line x1="962.426" y1="22.5146" x2="1061.84" y2="22.5146" stroke="#28232E" stroke-width="4"/>
<path d="M942 49.7524H966.368" stroke="#28232E" stroke-width="4"/>
<path d="M1092.5 86H1058.17" stroke="#28232E" stroke-width="4"/>
<path d="M898 65H944" stroke="#28232E" stroke-width="4"/>
<line x1="964.426" y1="21.79" x2="964.426" y2="51.7518" stroke="#28232E" stroke-width="4"/>
<path d="M1060.01 20.5L1060.18 87.2049" stroke="#28232E" stroke-width="4"/>
<path d="M941.999 47.7705L941.999 66.9998" stroke="#28232E" stroke-width="4"/>
<g clip-path="url(#clip4_15_5244)">
<path d="M1021.59 16.6016H1019.51V26.9799H1021.59V16.6016Z" fill="#28232E"/>
<path d="M1019.51 26.979H1017.44V31.1331H1019.51V26.979Z" fill="#28232E"/>
<path d="M1019.51 12.4478H1017.44V16.6018H1019.51V12.4478Z" fill="#28232E"/>
<path d="M1017.44 31.1328H1015.37V35.2733H1017.44V31.1328Z" fill="#28232E"/>
<path d="M1017.44 16.6016H1015.37V26.9799H1017.44V16.6016Z" fill="#28232E"/>
<path d="M1017.44 8.30762H1015.37V12.4481H1017.44V8.30762Z" fill="#28232E"/>
<path d="M1015.37 35.2729H1013.29V37.3568H1015.37V35.2729Z" fill="#28232E"/>
<path d="M1015.37 26.979H1013.29V31.1331H1015.37V26.979Z" fill="#28232E"/>
<path d="M1015.37 12.4478H1013.29V16.6018H1015.37V12.4478Z" fill="#28232E"/>
<path d="M1015.37 6.22412H1013.29V8.30797H1015.37V6.22412Z" fill="#28232E"/>
<path d="M1013.29 31.1328H1011.22V33.203H1013.29V31.1328Z" fill="#28232E"/>
<path d="M1013.29 10.3774H1011.22V12.4477H1013.29V10.3774Z" fill="#28232E"/>
<path d="M1013.29 37.3569H1009.13V39.4272H1013.29V37.3569Z" fill="#28232E"/>
<path d="M1011.22 33.2031H1009.13V35.2734H1011.22V33.2031Z" fill="#28232E"/>
<path d="M1011.22 8.30762H1009.13V10.3778H1011.22V8.30762Z" fill="#28232E"/>
<path d="M1013.29 4.15381H1009.13V6.22404H1013.29V4.15381Z" fill="#28232E"/>
<path d="M1009.13 39.4268H1004.99V41.5106H1009.13V39.4268Z" fill="#28232E"/>
<path d="M1009.13 35.2729H1004.99V37.3568H1009.13V35.2729Z" fill="#28232E"/>
<path d="M1009.13 6.22412H1004.99V8.30797H1009.13V6.22412Z" fill="#28232E"/>
<path d="M1009.13 2.07031H1004.99V4.15416H1009.13V2.07031Z" fill="#28232E"/>
<path d="M1004.99 41.5107H994.614V43.581H1004.99V41.5107Z" fill="#28232E"/>
<path d="M1004.99 37.3569H994.614V39.4272H1004.99V37.3569Z" fill="#28232E"/>
<path d="M1004.99 4.15381H994.614V6.22404H1004.99V4.15381Z" fill="#28232E"/>
<path d="M1004.99 0H994.614V2.07023H1004.99V0Z" fill="#28232E"/>
<path d="M994.615 39.4268H990.46V41.5106H994.615V39.4268Z" fill="#28232E"/>
<path d="M994.615 35.2729H990.46V37.3568H994.615V35.2729Z" fill="#28232E"/>
<path d="M994.615 6.22412H990.46V8.30797H994.615V6.22412Z" fill="#28232E"/>
<path d="M990.461 8.30762H988.391V10.3778H990.461V8.30762Z" fill="#28232E"/>
<path d="M994.615 2.07031H990.46V4.15416H994.615V2.07031Z" fill="#28232E"/>
<path d="M990.461 37.3569H986.307V39.4272H990.461V37.3569Z" fill="#28232E"/>
<path d="M990.461 33.2031H988.39V35.2734H990.461V33.2031Z" fill="#28232E"/>
<path d="M990.461 4.15381H986.307V6.22404H990.461V4.15381Z" fill="#28232E"/>
<path d="M988.39 31.1328H986.307V33.203H988.39V31.1328Z" fill="#28232E"/>
<path d="M988.39 10.3774H986.307V12.4477H988.39V10.3774Z" fill="#28232E"/>
<path d="M986.307 35.2729H984.237V37.3568H986.307V35.2729Z" fill="#28232E"/>
<path d="M986.307 26.979H984.237V31.1331H986.307V26.979Z" fill="#28232E"/>
<path d="M986.307 12.4478H984.237V16.6018H986.307V12.4478Z" fill="#28232E"/>
<path d="M986.307 6.22412H984.237V8.30797H986.307V6.22412Z" fill="#28232E"/>
<path d="M984.237 31.1328H982.167V35.2733H984.237V31.1328Z" fill="#28232E"/>
<path d="M984.237 16.6016H982.167V26.9799H984.237V16.6016Z" fill="#28232E"/>
<path d="M984.237 8.30762H982.167V12.4481H984.237V8.30762Z" fill="#28232E"/>
<path d="M982.167 26.979H980.083V31.1331H982.167V26.979Z" fill="#28232E"/>
<path d="M982.167 12.4478H980.083V16.6018H982.167V12.4478Z" fill="#28232E"/>
<path d="M980.083 16.6016H978.013V26.9799H980.083V16.6016Z" fill="#28232E"/>
</g>
<defs>
<clipPath id="clip0_15_5244">
<rect width="43.5808" height="43.5808" fill="white" transform="translate(257.399)"/>
</clipPath>
<clipPath id="clip1_15_5244">
<rect width="43.5808" height="43.5808" fill="white" transform="translate(613 225)"/>
</clipPath>
<clipPath id="clip2_15_5244">
<rect width="43.5808" height="43.5808" fill="white" transform="translate(1317.44 224.84)"/>
</clipPath>
<clipPath id="clip3_15_5244">
<rect width="43.5808" height="43.5808" fill="white" transform="translate(1612.45 1)"/>
</clipPath>
<clipPath id="clip4_15_5244">
<rect width="43.5808" height="43.5808" fill="white" transform="translate(978.013)"/>
</clipPath>
</defs>
</svg>
