<svg width="1284" height="231" viewBox="0 0 1284 231" fill="none" xmlns="http://www.w3.org/2000/svg">
<line y1="117.375" x2="39.8074" y2="117.375" stroke="#000010" stroke-width="2"/>
<line x1="39.9904" y1="68" x2="80.1282" y2="67.6154" stroke="#000010" stroke-width="2"/>
<line x1="199" y1="135" x2="175" y2="135" stroke="#000010" stroke-width="2"/>
<line x1="482" y1="133" x2="447" y2="133" stroke="#000010" stroke-width="2"/>
<line x1="727" y1="99" x2="692" y2="99" stroke="#000010" stroke-width="2"/>
<line x1="513" y1="185" x2="502.001" y2="185" stroke="#000010" stroke-width="2"/>
<line x1="757" y1="169" x2="746.001" y2="169" stroke="#000010" stroke-width="2"/>
<line x1="177" y1="83" x2="159" y2="83" stroke="#000010" stroke-width="2"/>
<line x1="586" y1="131" x2="600" y2="131" stroke="#000010" stroke-width="2"/>
<line x1="448" y1="83" x2="417" y2="83" stroke="#000010" stroke-width="2"/>
<line x1="321" y1="99" x2="345.618" y2="99" stroke="#000010" stroke-width="2"/>
<line x1="323.006" y1="149" x2="284.42" y2="149.23" stroke="#000010" stroke-width="2"/>
<line x1="588.047" y1="182" x2="565" y2="182" stroke="#000010" stroke-width="2"/>
<line x1="91" y1="9" x2="146.864" y2="9" stroke="#000010" stroke-width="2"/>
<line x1="368" y1="8" x2="406" y2="8" stroke="#000010" stroke-width="2"/>
<line x1="630" y1="10" x2="668" y2="10" stroke="#000010" stroke-width="2"/>
<line x1="197" y1="145" x2="228" y2="145" stroke="#000010" stroke-width="2"/>
<line x1="480" y1="144" x2="504" y2="144" stroke="#000010" stroke-width="2"/>
<line x1="725" y1="115" x2="748" y2="115" stroke="#000010" stroke-width="2"/>
<line x1="513" y1="195" x2="520" y2="195" stroke="#000010" stroke-width="2"/>
<line x1="756" y1="184" x2="762.809" y2="184" stroke="#000010" stroke-width="2"/>
<line x1="226.273" y1="223.178" x2="269.224" y2="223.178" stroke="#000010" stroke-width="2"/>
<line x1="520" y1="223" x2="552" y2="223" stroke="#000010" stroke-width="2"/>
<line x1="79" y1="18" x2="93" y2="18" stroke="#000010" stroke-width="2"/>
<line y1="-1" x2="14" y2="-1" transform="matrix(-1 0 0 1 693 51)" stroke="#000010" stroke-width="2"/>
<line x1="360" y1="19" x2="369.428" y2="19" stroke="#000010" stroke-width="2"/>
<line x1="622" y1="23" x2="631.428" y2="23" stroke="#000010" stroke-width="2"/>
<line x1="159.751" y1="34.0459" x2="144.997" y2="34.0001" stroke="#000010" stroke-width="2"/>
<line x1="598" y1="81" x2="610" y2="81" stroke="#000010" stroke-width="2"/>
<line y1="-1" x2="14.1421" y2="-1" transform="matrix(-1 0 0 1 418.143 34)" stroke="#000010" stroke-width="2"/>
<line y1="-1" x2="15" y2="-1" transform="matrix(-1 0 0 1 681 42)" stroke="#000010" stroke-width="2"/>
<line x1="624" y1="57" x2="610" y2="57" stroke="#000010" stroke-width="2"/>
<line x1="344" y1="49" x2="362" y2="49" stroke="#000010" stroke-width="2"/>
<line x1="285.984" y1="199.513" x2="267.652" y2="199.513" stroke="#000010" stroke-width="2"/>
<line x1="565" y1="199" x2="550" y2="199" stroke="#000010" stroke-width="2"/>
<line x1="40.1406" y1="66.9995" x2="40.1406" y2="118.375" stroke="#000010" stroke-width="2"/>
<line x1="92" y1="8" x2="92" y2="18.4756" stroke="#000010" stroke-width="2"/>
<line x1="680" y1="41" x2="680" y2="50.9518" stroke="#000010" stroke-width="2"/>
<line x1="369" y1="8" x2="369" y2="20" stroke="#000010" stroke-width="2"/>
<line x1="631" y1="9" x2="631" y2="24" stroke="#000010" stroke-width="2"/>
<line y1="-1" x2="10.9994" y2="-1" transform="matrix(4.0021e-07 -1 -1 -4.77421e-09 197 146)" stroke="#000010" stroke-width="2"/>
<line x1="481" y1="145" x2="481" y2="132" stroke="#000010" stroke-width="2"/>
<line x1="726" y1="115.809" x2="726" y2="98" stroke="#000010" stroke-width="2"/>
<line x1="512" y1="196" x2="512" y2="184" stroke="#000010" stroke-width="2"/>
<line x1="756" y1="185" x2="756" y2="169" stroke="#000010" stroke-width="2"/>
<line y1="-1" x2="25.6653" y2="-1" transform="matrix(-2.85678e-07 1 1 6.68824e-09 147 8)" stroke="#000010" stroke-width="2"/>
<line x1="609" y1="56" x2="609" y2="82" stroke="#000010" stroke-width="2"/>
<line y1="-1" x2="26" y2="-1" transform="matrix(-2.84778e-07 1 1 6.70939e-09 406 8)" stroke="#000010" stroke-width="2"/>
<line x1="667" y1="9" x2="667" y2="41.9982" stroke="#000010" stroke-width="2"/>
<line x1="519" y1="195" x2="519" y2="224" stroke="#000010" stroke-width="2"/>
<line x1="762" y1="183" x2="762" y2="224" stroke="#000010" stroke-width="2"/>
<line x1="361" y1="19" x2="361" y2="49.9031" stroke="#000010" stroke-width="2"/>
<line x1="623" y1="22" x2="623" y2="58" stroke="#000010" stroke-width="2"/>
<line x1="268.223" y1="224.178" x2="268.223" y2="198.513" stroke="#000010" stroke-width="2"/>
<line x1="551" y1="223.665" x2="551" y2="198" stroke="#000010" stroke-width="2"/>
<line x1="79" y1="17" x2="79" y2="68" stroke="#000010" stroke-width="2"/>
<line x1="692" y1="49" x2="692" y2="100" stroke="#000010" stroke-width="2"/>
<line x1="227.184" y1="224.179" x2="227.184" y2="144" stroke="#000010" stroke-width="2"/>
<line x1="503" y1="185" x2="503" y2="143" stroke="#000010" stroke-width="2"/>
<line x1="747" y1="170" x2="747" y2="115" stroke="#000010" stroke-width="2"/>
<line y1="-1" x2="51.8543" y2="-1" transform="matrix(-3.74784e-08 1 1 5.09809e-08 177 83)" stroke="#000010" stroke-width="2"/>
<line x1="587" y1="130" x2="587" y2="181.331" stroke="#000010" stroke-width="2"/>
<line x1="448" y1="82" x2="448" y2="134" stroke="#000010" stroke-width="2"/>
<line x1="322" y1="98" x2="322" y2="149.331" stroke="#000010" stroke-width="2"/>
<line x1="159" y1="33" x2="159" y2="84" stroke="#000010" stroke-width="2"/>
<line x1="599" y1="80" x2="599" y2="132" stroke="#000010" stroke-width="2"/>
<line x1="418" y1="32" x2="418" y2="83.3306" stroke="#000010" stroke-width="2"/>
<line x1="345" y1="48" x2="345" y2="100" stroke="#000010" stroke-width="2"/>
<line x1="284.984" y1="199.561" x2="284.984" y2="148.23" stroke="#000010" stroke-width="2"/>
<path d="M762 223H804" stroke="#000010" stroke-width="2"/>
<line x1="820.332" y1="200" x2="802" y2="200" stroke="#000010" stroke-width="2"/>
<line x1="825" y1="200" x2="822" y2="200" stroke="#000010" stroke-width="2"/>
<line x1="845.332" y1="200" x2="827" y2="200" stroke="#000010" stroke-width="2"/>
<line x1="875.332" y1="200" x2="857" y2="200" stroke="#000010" stroke-width="2"/>
<line x1="908.332" y1="200" x2="890" y2="200" stroke="#000010" stroke-width="2"/>
<line x1="996.332" y1="200" x2="978" y2="200" stroke="#000010" stroke-width="2"/>
<path d="M883.5 200H877" stroke="#000010" stroke-width="2"/>
<line x1="850" y1="200" x2="847" y2="200" stroke="#000010" stroke-width="2"/>
<line x1="855" y1="200" x2="852" y2="200" stroke="#000010" stroke-width="2"/>
<line x1="966" y1="200" x2="963" y2="200" stroke="#000010" stroke-width="2"/>
<line x1="971" y1="200" x2="968" y2="200" stroke="#000010" stroke-width="2"/>
<line x1="976" y1="200" x2="973" y2="200" stroke="#000010" stroke-width="2"/>
<line x1="1193" y1="200" x2="1190" y2="200" stroke="#000010" stroke-width="2"/>
<line x1="1198" y1="200" x2="1195" y2="200" stroke="#000010" stroke-width="2"/>
<line x1="1203" y1="200" x2="1200" y2="200" stroke="#000010" stroke-width="2"/>
<line x1="1060" y1="200" x2="1057" y2="200" stroke="#000010" stroke-width="2"/>
<line x1="1055" y1="200" x2="1052" y2="200" stroke="#000010" stroke-width="2"/>
<path d="M888.5 200H885.5" stroke="#000010" stroke-width="2"/>
<path d="M1004.5 200H998" stroke="#000010" stroke-width="2"/>
<path d="M1009.5 200H1006.5" stroke="#000010" stroke-width="2"/>
<line x1="1030.33" y1="200" x2="1012" y2="200" stroke="#000010" stroke-width="2"/>
<path d="M1034 200H1032" stroke="#000010" stroke-width="2"/>
<path d="M1050 200L1036 200" stroke="#000010" stroke-width="2"/>
<path d="M1086 200H1062" stroke="#000010" stroke-width="2"/>
<path d="M915 200H910" stroke="#000010" stroke-width="2"/>
<path d="M961 200H935" stroke="#000010" stroke-width="2"/>
<path d="M928 200H917" stroke="#000010" stroke-width="2"/>
<path d="M933 200H930" stroke="#000010" stroke-width="2"/>
<path d="M1093 200H1088" stroke="#000010" stroke-width="2"/>
<path d="M1139 200H1113" stroke="#000010" stroke-width="2"/>
<path d="M1224.5 200L1205 200" stroke="#000010" stroke-width="2"/>
<path d="M1269 200H1262M1284 200H1271.5" stroke="#000010" stroke-width="2"/>
<path d="M1238 200L1236 200" stroke="#000010" stroke-width="2"/>
<path d="M1259.5 200L1240 200" stroke="#000010" stroke-width="2"/>
<path d="M1188 200H1162" stroke="#000010" stroke-width="2"/>
<path d="M1234 200H1227" stroke="#000010" stroke-width="2"/>
<path d="M1106 200H1095" stroke="#000010" stroke-width="2"/>
<path d="M1111 200H1108" stroke="#000010" stroke-width="2"/>
<path d="M1143 200H1141" stroke="#000010" stroke-width="2"/>
<path d="M1156 200H1145" stroke="#000010" stroke-width="2"/>
<path d="M1160 200H1158" stroke="#000010" stroke-width="2"/>
<line x1="803" y1="224" x2="803" y2="199" stroke="#000010" stroke-width="2"/>
<line x1="564" y1="199.856" x2="564" y2="181" stroke="#000010" stroke-width="2"/>
<path d="M114.999 7.09521H114.234V10.9052H114.999V7.09521Z" fill="#000010"/>
<path d="M114.236 10.9048H113.476V12.4298H114.236V10.9048Z" fill="#000010"/>
<path d="M114.236 5.56982H113.476V7.09482H114.236V5.56982Z" fill="#000010"/>
<path d="M113.475 12.4302H112.715V13.9502H113.475V12.4302Z" fill="#000010"/>
<path d="M113.475 7.09521H112.715V10.9052H113.475V7.09521Z" fill="#000010"/>
<path d="M113.475 4.0498H112.715V5.5698H113.475V4.0498Z" fill="#000010"/>
<path d="M112.715 13.9502H111.95V14.7152H112.715V13.9502Z" fill="#000010"/>
<path d="M112.715 10.9048H111.95V12.4298H112.715V10.9048Z" fill="#000010"/>
<path d="M112.715 5.56982H111.95V7.09482H112.715V5.56982Z" fill="#000010"/>
<path d="M112.715 3.28516H111.95V4.05016H112.715V3.28516Z" fill="#000010"/>
<path d="M111.95 12.4302H111.19V13.1902H111.95V12.4302Z" fill="#000010"/>
<path d="M111.95 4.81006H111.19V5.57006H111.95V4.81006Z" fill="#000010"/>
<path d="M111.95 14.7148H110.425V15.4748H111.95V14.7148Z" fill="#000010"/>
<path d="M111.19 13.1899H110.425V13.9499H111.19V13.1899Z" fill="#000010"/>
<path d="M111.19 4.0498H110.425V4.8098H111.19V4.0498Z" fill="#000010"/>
<path d="M111.95 2.5249H110.425V3.2849H111.95V2.5249Z" fill="#000010"/>
<path d="M110.426 15.4751H108.906V16.2401H110.426V15.4751Z" fill="#000010"/>
<path d="M110.426 13.9502H108.906V14.7152H110.426V13.9502Z" fill="#000010"/>
<path d="M110.426 3.28516H108.906V4.05016H110.426V3.28516Z" fill="#000010"/>
<path d="M110.426 1.75977H108.906V2.52477H110.426V1.75977Z" fill="#000010"/>
<path d="M108.905 16.2402H105.095V17.0002H108.905V16.2402Z" fill="#000010"/>
<path d="M108.905 14.7148H105.095V15.4748H108.905V14.7148Z" fill="#000010"/>
<path d="M108.905 2.5249H105.095V3.2849H108.905V2.5249Z" fill="#000010"/>
<path d="M108.905 1H105.095V1.76H108.905V1Z" fill="#000010"/>
<path d="M105.095 15.4751H103.57V16.2401H105.095V15.4751Z" fill="#000010"/>
<path d="M105.095 13.9502H103.57V14.7152H105.095V13.9502Z" fill="#000010"/>
<path d="M105.095 3.28516H103.57V4.05016H105.095V3.28516Z" fill="#000010"/>
<path d="M103.571 4.0498H102.811V4.8098H103.571V4.0498Z" fill="#000010"/>
<path d="M105.095 1.75977H103.57V2.52477H105.095V1.75977Z" fill="#000010"/>
<path d="M103.57 14.7148H102.045V15.4748H103.57V14.7148Z" fill="#000010"/>
<path d="M103.571 13.1899H102.811V13.9499H103.571V13.1899Z" fill="#000010"/>
<path d="M103.57 2.5249H102.045V3.2849H103.57V2.5249Z" fill="#000010"/>
<path d="M102.81 12.4302H102.045V13.1902H102.81V12.4302Z" fill="#000010"/>
<path d="M102.81 4.81006H102.045V5.57006H102.81V4.81006Z" fill="#000010"/>
<path d="M102.046 13.9502H101.286V14.7152H102.046V13.9502Z" fill="#000010"/>
<path d="M102.046 10.9048H101.286V12.4298H102.046V10.9048Z" fill="#000010"/>
<path d="M102.046 5.56982H101.286V7.09482H102.046V5.56982Z" fill="#000010"/>
<path d="M102.046 3.28516H101.286V4.05016H102.046V3.28516Z" fill="#000010"/>
<path d="M101.285 12.4302H100.525V13.9502H101.285V12.4302Z" fill="#000010"/>
<path d="M101.285 7.09521H100.525V10.9052H101.285V7.09521Z" fill="#000010"/>
<path d="M101.285 4.0498H100.525V5.5698H101.285V4.0498Z" fill="#000010"/>
<path d="M100.526 10.9048H99.7607V12.4298H100.526V10.9048Z" fill="#000010"/>
<path d="M100.526 5.56982H99.7607V7.09482H100.526V5.56982Z" fill="#000010"/>
<path d="M99.76 7.09521H99V10.9052H99.76V7.09521Z" fill="#000010"/>
<g clip-path="url(#clip0_13_3001)">
<path d="M250 221.095H249.235V224.905H250V221.095Z" fill="#000010"/>
<path d="M249.235 224.905H248.475V226.43H249.235V224.905Z" fill="#000010"/>
<path d="M249.235 219.57H248.475V221.095H249.235V219.57Z" fill="#000010"/>
<path d="M248.475 226.43H247.715V227.95H248.475V226.43Z" fill="#000010"/>
<path d="M248.475 221.095H247.715V224.905H248.475V221.095Z" fill="#000010"/>
<path d="M248.475 218.05H247.715V219.57H248.475V218.05Z" fill="#000010"/>
<path d="M247.715 227.95H246.95V228.715H247.715V227.95Z" fill="#000010"/>
<path d="M247.715 224.905H246.95V226.43H247.715V224.905Z" fill="#000010"/>
<path d="M247.715 219.57H246.95V221.095H247.715V219.57Z" fill="#000010"/>
<path d="M247.715 217.285H246.95V218.05H247.715V217.285Z" fill="#000010"/>
<path d="M246.95 226.43H246.19V227.19H246.95V226.43Z" fill="#000010"/>
<path d="M246.95 218.81H246.19V219.57H246.95V218.81Z" fill="#000010"/>
<path d="M246.95 228.715H245.425V229.475H246.95V228.715Z" fill="#000010"/>
<path d="M246.19 227.19H245.425V227.95H246.19V227.19Z" fill="#000010"/>
<path d="M246.19 218.05H245.425V218.81H246.19V218.05Z" fill="#000010"/>
<path d="M246.95 216.525H245.425V217.285H246.95V216.525Z" fill="#000010"/>
<path d="M245.425 229.475H243.905V230.24H245.425V229.475Z" fill="#000010"/>
<path d="M245.425 227.95H243.905V228.715H245.425V227.95Z" fill="#000010"/>
<path d="M245.425 217.285H243.905V218.05H245.425V217.285Z" fill="#000010"/>
<path d="M245.425 215.76H243.905V216.525H245.425V215.76Z" fill="#000010"/>
<path d="M243.905 230.24H240.095V231H243.905V230.24Z" fill="#000010"/>
<path d="M243.905 228.715H240.095V229.475H243.905V228.715Z" fill="#000010"/>
<path d="M243.905 216.525H240.095V217.285H243.905V216.525Z" fill="#000010"/>
<path d="M243.905 215H240.095V215.76H243.905V215Z" fill="#000010"/>
<path d="M240.095 229.475H238.57V230.24H240.095V229.475Z" fill="#000010"/>
<path d="M240.095 227.95H238.57V228.715H240.095V227.95Z" fill="#000010"/>
<path d="M240.095 217.285H238.57V218.05H240.095V217.285Z" fill="#000010"/>
<path d="M238.57 218.05H237.81V218.81H238.57V218.05Z" fill="#000010"/>
<path d="M240.095 215.76H238.57V216.525H240.095V215.76Z" fill="#000010"/>
<path d="M238.57 228.715H237.045V229.475H238.57V228.715Z" fill="#000010"/>
<path d="M238.57 227.19H237.81V227.95H238.57V227.19Z" fill="#000010"/>
<path d="M238.57 216.525H237.045V217.285H238.57V216.525Z" fill="#000010"/>
<path d="M237.81 226.43H237.045V227.19H237.81V226.43Z" fill="#000010"/>
<path d="M237.81 218.81H237.045V219.57H237.81V218.81Z" fill="#000010"/>
<path d="M237.045 227.95H236.285V228.715H237.045V227.95Z" fill="#000010"/>
<path d="M237.045 224.905H236.285V226.43H237.045V224.905Z" fill="#000010"/>
<path d="M237.045 219.57H236.285V221.095H237.045V219.57Z" fill="#000010"/>
<path d="M237.045 217.285H236.285V218.05H237.045V217.285Z" fill="#000010"/>
<path d="M236.285 226.43H235.525V227.95H236.285V226.43Z" fill="#000010"/>
<path d="M236.285 221.095H235.525V224.905H236.285V221.095Z" fill="#000010"/>
<path d="M236.285 218.05H235.525V219.57H236.285V218.05Z" fill="#000010"/>
<path d="M235.525 224.905H234.76V226.43H235.525V224.905Z" fill="#000010"/>
<path d="M235.525 219.57H234.76V221.095H235.525V219.57Z" fill="#000010"/>
<path d="M234.76 221.095H234V224.905H234.76V221.095Z" fill="#000010"/>
</g>
<g clip-path="url(#clip1_13_3001)">
<path d="M541 221.095H540.235V224.905H541V221.095Z" fill="#000010"/>
<path d="M540.235 224.905H539.475V226.43H540.235V224.905Z" fill="#000010"/>
<path d="M540.235 219.57H539.475V221.095H540.235V219.57Z" fill="#000010"/>
<path d="M539.475 226.43H538.715V227.95H539.475V226.43Z" fill="#000010"/>
<path d="M539.475 221.095H538.715V224.905H539.475V221.095Z" fill="#000010"/>
<path d="M539.475 218.05H538.715V219.57H539.475V218.05Z" fill="#000010"/>
<path d="M538.715 227.95H537.95V228.715H538.715V227.95Z" fill="#000010"/>
<path d="M538.715 224.905H537.95V226.43H538.715V224.905Z" fill="#000010"/>
<path d="M538.715 219.57H537.95V221.095H538.715V219.57Z" fill="#000010"/>
<path d="M538.715 217.285H537.95V218.05H538.715V217.285Z" fill="#000010"/>
<path d="M537.95 226.43H537.19V227.19H537.95V226.43Z" fill="#000010"/>
<path d="M537.95 218.81H537.19V219.57H537.95V218.81Z" fill="#000010"/>
<path d="M537.95 228.715H536.425V229.475H537.95V228.715Z" fill="#000010"/>
<path d="M537.19 227.19H536.425V227.95H537.19V227.19Z" fill="#000010"/>
<path d="M537.19 218.05H536.425V218.81H537.19V218.05Z" fill="#000010"/>
<path d="M537.95 216.525H536.425V217.285H537.95V216.525Z" fill="#000010"/>
<path d="M536.425 229.475H534.905V230.24H536.425V229.475Z" fill="#000010"/>
<path d="M536.425 227.95H534.905V228.715H536.425V227.95Z" fill="#000010"/>
<path d="M536.425 217.285H534.905V218.05H536.425V217.285Z" fill="#000010"/>
<path d="M536.425 215.76H534.905V216.525H536.425V215.76Z" fill="#000010"/>
<path d="M534.905 230.24H531.095V231H534.905V230.24Z" fill="#000010"/>
<path d="M534.905 228.715H531.095V229.475H534.905V228.715Z" fill="#000010"/>
<path d="M534.905 216.525H531.095V217.285H534.905V216.525Z" fill="#000010"/>
<path d="M534.905 215H531.095V215.76H534.905V215Z" fill="#000010"/>
<path d="M531.095 229.475H529.57V230.24H531.095V229.475Z" fill="#000010"/>
<path d="M531.095 227.95H529.57V228.715H531.095V227.95Z" fill="#000010"/>
<path d="M531.095 217.285H529.57V218.05H531.095V217.285Z" fill="#000010"/>
<path d="M529.57 218.05H528.81V218.81H529.57V218.05Z" fill="#000010"/>
<path d="M531.095 215.76H529.57V216.525H531.095V215.76Z" fill="#000010"/>
<path d="M529.57 228.715H528.045V229.475H529.57V228.715Z" fill="#000010"/>
<path d="M529.57 227.19H528.81V227.95H529.57V227.19Z" fill="#000010"/>
<path d="M529.57 216.525H528.045V217.285H529.57V216.525Z" fill="#000010"/>
<path d="M528.81 226.43H528.045V227.19H528.81V226.43Z" fill="#000010"/>
<path d="M528.81 218.81H528.045V219.57H528.81V218.81Z" fill="#000010"/>
<path d="M528.045 227.95H527.285V228.715H528.045V227.95Z" fill="#000010"/>
<path d="M528.045 224.905H527.285V226.43H528.045V224.905Z" fill="#000010"/>
<path d="M528.045 219.57H527.285V221.095H528.045V219.57Z" fill="#000010"/>
<path d="M528.045 217.285H527.285V218.05H528.045V217.285Z" fill="#000010"/>
<path d="M527.285 226.43H526.525V227.95H527.285V226.43Z" fill="#000010"/>
<path d="M527.285 221.095H526.525V224.905H527.285V221.095Z" fill="#000010"/>
<path d="M527.285 218.05H526.525V219.57H527.285V218.05Z" fill="#000010"/>
<path d="M526.525 224.905H525.76V226.43H526.525V224.905Z" fill="#000010"/>
<path d="M526.525 219.57H525.76V221.095H526.525V219.57Z" fill="#000010"/>
<path d="M525.76 221.095H525V224.905H525.76V221.095Z" fill="#000010"/>
</g>
<g clip-path="url(#clip2_13_3001)">
<path d="M390.504 6.09521H389.739V9.90521H390.504V6.09521Z" fill="#000010"/>
<path d="M389.739 9.90479H388.979V11.4298H389.739V9.90479Z" fill="#000010"/>
<path d="M389.739 4.56982H388.979V6.09482H389.739V4.56982Z" fill="#000010"/>
<path d="M388.979 11.4302H388.219V12.9502H388.979V11.4302Z" fill="#000010"/>
<path d="M388.979 6.09521H388.219V9.90521H388.979V6.09521Z" fill="#000010"/>
<path d="M388.979 3.0498H388.219V4.5698H388.979V3.0498Z" fill="#000010"/>
<path d="M388.219 12.9502H387.454V13.7152H388.219V12.9502Z" fill="#000010"/>
<path d="M388.219 9.90479H387.454V11.4298H388.219V9.90479Z" fill="#000010"/>
<path d="M388.219 4.56982H387.454V6.09482H388.219V4.56982Z" fill="#000010"/>
<path d="M388.219 2.28516H387.454V3.05016H388.219V2.28516Z" fill="#000010"/>
<path d="M387.454 11.4302H386.694V12.1902H387.454V11.4302Z" fill="#000010"/>
<path d="M387.454 3.81006H386.694V4.57006H387.454V3.81006Z" fill="#000010"/>
<path d="M387.454 13.7148H385.929V14.4748H387.454V13.7148Z" fill="#000010"/>
<path d="M386.694 12.1899H385.929V12.9499H386.694V12.1899Z" fill="#000010"/>
<path d="M386.694 3.0498H385.929V3.8098H386.694V3.0498Z" fill="#000010"/>
<path d="M387.454 1.5249H385.929V2.2849H387.454V1.5249Z" fill="#000010"/>
<path d="M385.929 14.4751H384.409V15.2401H385.929V14.4751Z" fill="#000010"/>
<path d="M385.929 12.9502H384.409V13.7152H385.929V12.9502Z" fill="#000010"/>
<path d="M385.929 2.28516H384.409V3.05016H385.929V2.28516Z" fill="#000010"/>
<path d="M385.929 0.759766H384.409V1.52477H385.929V0.759766Z" fill="#000010"/>
<path d="M384.409 15.2402H380.599V16.0002H384.409V15.2402Z" fill="#000010"/>
<path d="M384.409 13.7148H380.599V14.4748H384.409V13.7148Z" fill="#000010"/>
<path d="M384.409 1.5249H380.599V2.2849H384.409V1.5249Z" fill="#000010"/>
<path d="M384.409 0H380.599V0.76H384.409V0Z" fill="#000010"/>
<path d="M380.599 14.4751H379.074V15.2401H380.599V14.4751Z" fill="#000010"/>
<path d="M380.599 12.9502H379.074V13.7152H380.599V12.9502Z" fill="#000010"/>
<path d="M380.599 2.28516H379.074V3.05016H380.599V2.28516Z" fill="#000010"/>
<path d="M379.074 3.0498H378.314V3.8098H379.074V3.0498Z" fill="#000010"/>
<path d="M380.599 0.759766H379.074V1.52477H380.599V0.759766Z" fill="#000010"/>
<path d="M379.074 13.7148H377.549V14.4748H379.074V13.7148Z" fill="#000010"/>
<path d="M379.074 12.1899H378.314V12.9499H379.074V12.1899Z" fill="#000010"/>
<path d="M379.074 1.5249H377.549V2.2849H379.074V1.5249Z" fill="#000010"/>
<path d="M378.314 11.4302H377.549V12.1902H378.314V11.4302Z" fill="#000010"/>
<path d="M378.314 3.81006H377.549V4.57006H378.314V3.81006Z" fill="#000010"/>
<path d="M377.549 12.9502H376.789V13.7152H377.549V12.9502Z" fill="#000010"/>
<path d="M377.549 9.90479H376.789V11.4298H377.549V9.90479Z" fill="#000010"/>
<path d="M377.549 4.56982H376.789V6.09482H377.549V4.56982Z" fill="#000010"/>
<path d="M377.549 2.28516H376.789V3.05016H377.549V2.28516Z" fill="#000010"/>
<path d="M376.789 11.4302H376.029V12.9502H376.789V11.4302Z" fill="#000010"/>
<path d="M376.789 6.09521H376.029V9.90521H376.789V6.09521Z" fill="#000010"/>
<path d="M376.789 3.0498H376.029V4.5698H376.789V3.0498Z" fill="#000010"/>
<path d="M376.029 9.90479H375.264V11.4298H376.029V9.90479Z" fill="#000010"/>
<path d="M376.029 4.56982H375.264V6.09482H376.029V4.56982Z" fill="#000010"/>
<path d="M375.264 6.09521H374.504V9.90521H375.264V6.09521Z" fill="#000010"/>
</g>
<g clip-path="url(#clip3_13_3001)">
<path d="M653 8.09521H652.235V11.9052H653V8.09521Z" fill="#000010"/>
<path d="M652.235 11.9048H651.475V13.4298H652.235V11.9048Z" fill="#000010"/>
<path d="M652.235 6.56982H651.475V8.09482H652.235V6.56982Z" fill="#000010"/>
<path d="M651.475 13.4302H650.715V14.9502H651.475V13.4302Z" fill="#000010"/>
<path d="M651.475 8.09521H650.715V11.9052H651.475V8.09521Z" fill="#000010"/>
<path d="M651.475 5.0498H650.715V6.5698H651.475V5.0498Z" fill="#000010"/>
<path d="M650.715 14.9502H649.95V15.7152H650.715V14.9502Z" fill="#000010"/>
<path d="M650.715 11.9048H649.95V13.4298H650.715V11.9048Z" fill="#000010"/>
<path d="M650.715 6.56982H649.95V8.09482H650.715V6.56982Z" fill="#000010"/>
<path d="M650.715 4.28516H649.95V5.05016H650.715V4.28516Z" fill="#000010"/>
<path d="M649.95 13.4302H649.19V14.1902H649.95V13.4302Z" fill="#000010"/>
<path d="M649.95 5.81006H649.19V6.57006H649.95V5.81006Z" fill="#000010"/>
<path d="M649.95 15.7148H648.425V16.4748H649.95V15.7148Z" fill="#000010"/>
<path d="M649.19 14.1899H648.425V14.9499H649.19V14.1899Z" fill="#000010"/>
<path d="M649.19 5.0498H648.425V5.8098H649.19V5.0498Z" fill="#000010"/>
<path d="M649.95 3.5249H648.425V4.2849H649.95V3.5249Z" fill="#000010"/>
<path d="M648.425 16.4751H646.905V17.2401H648.425V16.4751Z" fill="#000010"/>
<path d="M648.425 14.9502H646.905V15.7152H648.425V14.9502Z" fill="#000010"/>
<path d="M648.425 4.28516H646.905V5.05016H648.425V4.28516Z" fill="#000010"/>
<path d="M648.425 2.75977H646.905V3.52477H648.425V2.75977Z" fill="#000010"/>
<path d="M646.905 17.2402H643.095V18.0002H646.905V17.2402Z" fill="#000010"/>
<path d="M646.905 15.7148H643.095V16.4748H646.905V15.7148Z" fill="#000010"/>
<path d="M646.905 3.5249H643.095V4.2849H646.905V3.5249Z" fill="#000010"/>
<path d="M646.905 2H643.095V2.76H646.905V2Z" fill="#000010"/>
<path d="M643.095 16.4751H641.57V17.2401H643.095V16.4751Z" fill="#000010"/>
<path d="M643.095 14.9502H641.57V15.7152H643.095V14.9502Z" fill="#000010"/>
<path d="M643.095 4.28516H641.57V5.05016H643.095V4.28516Z" fill="#000010"/>
<path d="M641.57 5.0498H640.81V5.8098H641.57V5.0498Z" fill="#000010"/>
<path d="M643.095 2.75977H641.57V3.52477H643.095V2.75977Z" fill="#000010"/>
<path d="M641.57 15.7148H640.045V16.4748H641.57V15.7148Z" fill="#000010"/>
<path d="M641.57 14.1899H640.81V14.9499H641.57V14.1899Z" fill="#000010"/>
<path d="M641.57 3.5249H640.045V4.2849H641.57V3.5249Z" fill="#000010"/>
<path d="M640.81 13.4302H640.045V14.1902H640.81V13.4302Z" fill="#000010"/>
<path d="M640.81 5.81006H640.045V6.57006H640.81V5.81006Z" fill="#000010"/>
<path d="M640.045 14.9502H639.285V15.7152H640.045V14.9502Z" fill="#000010"/>
<path d="M640.045 11.9048H639.285V13.4298H640.045V11.9048Z" fill="#000010"/>
<path d="M640.045 6.56982H639.285V8.09482H640.045V6.56982Z" fill="#000010"/>
<path d="M640.045 4.28516H639.285V5.05016H640.045V4.28516Z" fill="#000010"/>
<path d="M639.285 13.4302H638.525V14.9502H639.285V13.4302Z" fill="#000010"/>
<path d="M639.285 8.09521H638.525V11.9052H639.285V8.09521Z" fill="#000010"/>
<path d="M639.285 5.0498H638.525V6.5698H639.285V5.0498Z" fill="#000010"/>
<path d="M638.525 11.9048H637.76V13.4298H638.525V11.9048Z" fill="#000010"/>
<path d="M638.525 6.56982H637.76V8.09482H638.525V6.56982Z" fill="#000010"/>
<path d="M637.76 8.09521H637V11.9052H637.76V8.09521Z" fill="#000010"/>
</g>
<defs>
<clipPath id="clip0_13_3001">
<rect width="16" height="16" fill="white" transform="translate(234 215)"/>
</clipPath>
<clipPath id="clip1_13_3001">
<rect width="16" height="16" fill="white" transform="translate(525 215)"/>
</clipPath>
<clipPath id="clip2_13_3001">
<rect width="16" height="16" fill="white" transform="translate(374.504)"/>
</clipPath>
<clipPath id="clip3_13_3001">
<rect width="16" height="16" fill="white" transform="translate(637 2)"/>
</clipPath>
</defs>
</svg>
