<svg width="79" height="79" viewBox="0 0 79 79" fill="none" xmlns="http://www.w3.org/2000/svg">
<g clip-path="url(#clip0_98_331)">
<path d="M71.5881 30.3623L68.8184 29.3923L64.9576 40.4171L67.7274 41.387L71.5881 30.3623Z" fill="#D47B28"/>
<path d="M64.9567 40.4171L62.2051 39.4535L59.308 47.7265L62.0596 48.6901L64.9567 40.4171Z" fill="#D47B28"/>
<path d="M59.3083 47.7265L56.5566 46.7629L52.6896 57.8058L55.4412 58.7694L59.3083 47.7265Z" fill="#D47B28"/>
<path d="M52.6897 57.8058L49.9199 56.8358L46.0592 67.8605L48.829 68.8305L52.6897 57.8058Z" fill="#D47B28"/>
<path d="M57.794 25.5316L68.8187 29.3923L69.7887 26.6226L58.764 22.7619L60.6975 17.2405L57.9277 16.2705L39.5687 68.6968L45.0901 70.6303L46.0601 67.8605L43.3084 66.897L57.794 25.5316Z" fill="#D47B28"/>
<path d="M39.5688 68.6968L6.47656 57.1083L5.51297 59.8599L38.6052 71.4484L39.5688 68.6968Z" fill="#D47B28"/>
<path d="M39.7204 59.442L36.9688 58.4784L35.0352 63.9998L37.7869 64.9634L39.7204 59.442Z" fill="#D47B28"/>
<path d="M39.3202 25.2407L33.7988 23.3071L31.8652 28.8286L26.3438 26.895L24.4103 32.4164L29.9317 34.35L28.9681 37.1016L26.1983 36.1317L25.2284 38.9015L36.2712 42.7685L37.2412 39.9988L34.4895 39.0352L35.4531 36.2835L40.9564 38.2107L42.8899 32.6893L37.3866 30.7621L39.3202 25.2407Z" fill="#D47B28"/>
<path d="M29.3869 9.3853L26.6172 8.41537L24.6837 13.9368L27.4534 14.9067L29.3869 9.3853Z" fill="#D47B28"/>
<path d="M58.8911 13.5189L25.7988 1.93036L24.8352 4.68201L57.9275 16.2705L58.8911 13.5189Z" fill="#D47B28"/>
<path d="M24.8356 4.68202L22.084 3.71842L3.72496 56.1447L6.47661 57.1083L24.8356 4.68202Z" fill="#D47B28"/>
</g>
<defs>
<clipPath id="clip0_98_331">
<rect width="61.3789" height="61.3789" fill="white" transform="translate(20.2871) rotate(19.2996)"/>
</clipPath>
</defs>
</svg>
