<svg width="58" height="58" viewBox="0 0 58 58" fill="none" xmlns="http://www.w3.org/2000/svg">
<g clip-path="url(#clip0_98_247)">
<path d="M57.9997 22.0944H55.2266V35.9056H57.9997V22.0944Z" fill="#D47B28"/>
<path d="M55.2277 35.9056H52.4727V41.4338H55.2277V35.9056Z" fill="#D47B28"/>
<path d="M55.2277 16.5662H52.4727V22.0943H55.2277V16.5662Z" fill="#D47B28"/>
<path d="M52.4718 41.4338H49.7168V46.9438H52.4718V41.4338Z" fill="#D47B28"/>
<path d="M52.4718 22.0944H49.7168V35.9056H52.4718V22.0944Z" fill="#D47B28"/>
<path d="M52.4718 11.0563H49.7168V16.5663H52.4718V11.0563Z" fill="#D47B28"/>
<path d="M49.7165 46.9437H46.9434V49.7169H49.7165V46.9437Z" fill="#D47B28"/>
<path d="M49.7165 35.9056H46.9434V41.4338H49.7165V35.9056Z" fill="#D47B28"/>
<path d="M49.7165 16.5662H46.9434V22.0943H49.7165V16.5662Z" fill="#D47B28"/>
<path d="M49.7165 8.28314H46.9434V11.0563H49.7165V8.28314Z" fill="#D47B28"/>
<path d="M46.9445 41.4338H44.1895V44.1888H46.9445V41.4338Z" fill="#D47B28"/>
<path d="M46.9445 27.6225H44.1895V30.3775H46.9445V27.6225Z" fill="#D47B28"/>
<path d="M46.9445 13.8113H44.1895V16.5663H46.9445V13.8113Z" fill="#D47B28"/>
<path d="M46.9441 49.7169H41.416V52.4719H46.9441V49.7169Z" fill="#D47B28"/>
<path d="M44.1891 44.1887H41.416V46.9437H44.1891V44.1887Z" fill="#D47B28"/>
<path d="M44.1891 11.0563H41.416V13.8113H44.1891V11.0563Z" fill="#D47B28"/>
<path d="M46.9441 5.52814H41.416V8.28314H46.9441V5.52814Z" fill="#D47B28"/>
<path d="M41.4152 38.6606H38.6602V41.4338H41.4152V38.6606Z" fill="#D47B28"/>
<path d="M41.4152 19.3394H38.6602V22.0944H41.4152V19.3394Z" fill="#D47B28"/>
<path d="M41.4163 52.4719H35.9062V55.245H41.4163V52.4719Z" fill="#D47B28"/>
<path d="M41.4163 46.9437H35.9062V49.7169H41.4163V46.9437Z" fill="#D47B28"/>
<path d="M41.4163 8.28314H35.9062V11.0563H41.4163V8.28314Z" fill="#D47B28"/>
<path d="M41.4163 2.755H35.9062V5.52813H41.4163V2.755Z" fill="#D47B28"/>
<path d="M33.1327 24.8494H27.6227V27.6225H24.8496V35.9056H33.1327V33.1506H35.9059V27.6225H38.6609V22.0944H33.1327V24.8494Z" fill="#D47B28"/>
<path d="M35.905 55.245H22.0938V58H35.905V55.245Z" fill="#D47B28"/>
<path d="M35.905 49.7169H22.0938V52.4719H35.905V49.7169Z" fill="#D47B28"/>
<path d="M30.378 44.1887H27.623V46.9437H30.378V44.1887Z" fill="#D47B28"/>
<path d="M30.378 11.0563H27.623V13.8113H30.378V11.0563Z" fill="#D47B28"/>
<path d="M35.905 5.52814H22.0938V8.28314H35.905V5.52814Z" fill="#D47B28"/>
<path d="M35.905 0H22.0938V2.755H35.905V0Z" fill="#D47B28"/>
<path d="M22.0945 52.4719H16.5664V55.245H22.0945V52.4719Z" fill="#D47B28"/>
<path d="M22.0945 46.9437H16.5664V49.7169H22.0945V46.9437Z" fill="#D47B28"/>
<path d="M22.0945 8.28314H16.5664V11.0563H22.0945V8.28314Z" fill="#D47B28"/>
<path d="M22.0945 2.755H16.5664V5.52813H22.0945V2.755Z" fill="#D47B28"/>
<path d="M19.3214 38.6606H16.5664V41.4338H19.3214V38.6606Z" fill="#D47B28"/>
<path d="M19.3214 16.5662H16.5664V19.3393H19.3214V16.5662Z" fill="#D47B28"/>
<path d="M16.5672 49.7169H11.0391V52.4719H16.5672V49.7169Z" fill="#D47B28"/>
<path d="M16.5655 44.1887H13.8105V46.9437H16.5655V44.1887Z" fill="#D47B28"/>
<path d="M16.5655 11.0563H13.8105V13.8113H16.5655V11.0563Z" fill="#D47B28"/>
<path d="M16.5672 5.52814H11.0391V8.28314H16.5672V5.52814Z" fill="#D47B28"/>
<path d="M13.8122 41.4338H11.0391V44.1888H13.8122V41.4338Z" fill="#D47B28"/>
<path d="M13.8122 27.6225H11.0391V30.3775H13.8122V27.6225Z" fill="#D47B28"/>
<path d="M13.8122 13.8113H11.0391V16.5663H13.8122V13.8113Z" fill="#D47B28"/>
<path d="M11.0382 46.9437H8.2832V49.7169H11.0382V46.9437Z" fill="#D47B28"/>
<path d="M11.0382 35.9056H8.2832V41.4338H11.0382V35.9056Z" fill="#D47B28"/>
<path d="M11.0382 16.5662H8.2832V22.0943H11.0382V16.5662Z" fill="#D47B28"/>
<path d="M11.0382 8.28314H8.2832V11.0563H11.0382V8.28314Z" fill="#D47B28"/>
<path d="M8.28234 41.4338H5.52734V46.9438H8.28234V41.4338Z" fill="#D47B28"/>
<path d="M8.28234 22.0944H5.52734V35.9056H8.28234V22.0944Z" fill="#D47B28"/>
<path d="M8.28234 11.0563H5.52734V16.5663H8.28234V11.0563Z" fill="#D47B28"/>
<path d="M5.52898 35.9056H2.75586V41.4338H5.52898V35.9056Z" fill="#D47B28"/>
<path d="M5.52898 16.5662H2.75586V22.0943H5.52898V16.5662Z" fill="#D47B28"/>
<path d="M2.755 22.0944H0V35.9056H2.755V22.0944Z" fill="#D47B28"/>
</g>
<defs>
<clipPath id="clip0_98_247">
<rect width="58" height="58" fill="white"/>
</clipPath>
</defs>
</svg>
