<svg width="78" height="78" viewBox="0 0 78 78" fill="none" xmlns="http://www.w3.org/2000/svg">
<g clip-path="url(#clip0_98_406)">
<path d="M77.9999 18.5737H74.2949V22.2787H77.9999V18.5737Z" fill="#D47B28"/>
<path d="M66.86 37.1475V40.8525H59.45V44.5819H66.86V66.8606H52.0156V70.5657H66.86V74.295H77.9994V37.1475H66.86Z" fill="#D47B28"/>
<path d="M74.2948 22.2787H70.5898V26.0081H74.2948V22.2787Z" fill="#D47B28"/>
<path d="M70.5907 18.5737H66.8613V22.2787H70.5907V18.5737Z" fill="#D47B28"/>
<path d="M66.8613 22.2787H63.1562V26.0081H66.8613V22.2787Z" fill="#D47B28"/>
<path d="M66.8613 3.72937H63.1562V7.43437H66.8613V3.72937Z" fill="#D47B28"/>
<path d="M63.1562 18.5737H59.4512V22.2787H63.1562V18.5737Z" fill="#D47B28"/>
<path d="M59.4501 37.1475H55.7207V40.8525H59.4501V37.1475Z" fill="#D47B28"/>
<path d="M55.7206 33.4425H52.0156V37.1475H55.7206V33.4425Z" fill="#D47B28"/>
<path d="M52.0163 55.7213H48.287V63.1556H40.877V70.5656H44.582V66.8606H52.0163V55.7213Z" fill="#D47B28"/>
<path d="M48.287 52.0162H44.582V55.7212H48.287V52.0162Z" fill="#D47B28"/>
<path d="M48.287 7.43439H44.582V11.1394H48.287V7.43439Z" fill="#D47B28"/>
<path d="M44.582 48.2869H40.877V52.0162H44.582V48.2869Z" fill="#D47B28"/>
<path d="M44.582 40.8525H40.877V44.5819H44.582V40.8525Z" fill="#D47B28"/>
<path d="M52.0172 29.7131H37.1484V33.4425H52.0172V29.7131Z" fill="#D47B28"/>
<path d="M44.582 11.1394H40.877V14.8688H44.582V11.1394Z" fill="#D47B28"/>
<path d="M44.582 3.72937H40.877V7.43437H44.582V3.72937Z" fill="#D47B28"/>
<path d="M40.8778 59.4263H37.1484V63.1556H40.8778V59.4263Z" fill="#D47B28"/>
<path d="M40.8778 44.5819H37.1484V48.2869H40.8778V44.5819Z" fill="#D47B28"/>
<path d="M40.8778 7.43439H37.1484V11.1394H40.8778V7.43439Z" fill="#D47B28"/>
<path d="M33.4421 74.295H22.3027V78H37.1471V74.295H40.8765V70.5656H33.4421V74.295Z" fill="#D47B28"/>
<path d="M37.1484 33.4425H33.4434V37.1475H37.1484V33.4425Z" fill="#D47B28"/>
<path d="M33.4423 66.8606H29.7129V70.5656H33.4423V66.8606Z" fill="#D47B28"/>
<path d="M37.1473 48.2869H29.7129V52.0162H37.1473V48.2869Z" fill="#D47B28"/>
<path d="M33.4423 37.1475H29.7129V40.8525H33.4423V37.1475Z" fill="#D47B28"/>
<path d="M33.4422 29.7131H26.0078V33.4425H33.4422V29.7131Z" fill="#D47B28"/>
<path d="M29.7128 63.1556H26.0078V66.8606H29.7128V63.1556Z" fill="#D47B28"/>
<path d="M29.7128 40.8525H26.0078V48.2869H29.7128V40.8525Z" fill="#D47B28"/>
<path d="M29.7128 14.8688H26.0078V18.5738H29.7128V14.8688Z" fill="#D47B28"/>
<path d="M26.0077 33.4425H22.3027V37.1475H26.0077V33.4425Z" fill="#D47B28"/>
<path d="M22.3036 70.5656H18.5742V74.295H22.3036V70.5656Z" fill="#D47B28"/>
<path d="M22.3036 37.1475H18.5742V40.8525H22.3036V37.1475Z" fill="#D47B28"/>
<path d="M11.1637 66.8606V44.5819H18.5737V40.8525H11.1637V37.1475H0V74.295H11.1637V70.5657H18.5737V66.8606H11.1637Z" fill="#D47B28"/>
<path d="M18.5741 0H14.8691V3.72937H18.5741V0Z" fill="#D47B28"/>
<path d="M11.1629 29.7131V26.0081H14.8679V22.2787H11.1629V18.5737H7.43352V22.2787H3.72852V26.0081H7.43352V29.7131H11.1629Z" fill="#D47B28"/>
</g>
<defs>
<clipPath id="clip0_98_406">
<rect width="78" height="78" fill="white"/>
</clipPath>
</defs>
</svg>
