<svg width="65" height="65" viewBox="0 0 65 65" fill="none" xmlns="http://www.w3.org/2000/svg">
<g clip-path="url(#clip0_98_379)">
<path d="M65.0004 24.7609H61.8926V40.239H65.0004V24.7609Z" fill="#D47B28"/>
<path d="M61.8922 40.2391H58.8047V46.4344H61.8922V40.2391Z" fill="#D47B28"/>
<path d="M61.8922 18.5656H58.8047V24.7609H61.8922V18.5656Z" fill="#D47B28"/>
<path d="M58.8043 46.4344H55.7168V52.6094H58.8043V46.4344Z" fill="#D47B28"/>
<path d="M58.8043 12.3703H55.7168V18.5656H58.8043V12.3703Z" fill="#D47B28"/>
<path d="M55.7172 52.6094H52.6094V55.7172H55.7172V52.6094Z" fill="#D47B28"/>
<path d="M55.7172 9.28281H52.6094V12.3703H55.7172V9.28281Z" fill="#D47B28"/>
<path d="M52.6094 55.7172H46.4141V58.8047H52.6094V55.7172Z" fill="#D47B28"/>
<path d="M49.5227 21.6734H46.4148V18.5656H37.132V21.6734H34.0445V24.7609H30.9367V21.6734H27.8492V18.5656H18.5664V21.6734H15.4789V24.7609H12.3711V34.0437H15.4789V37.1516H18.5664V40.239H21.6539V43.3265H24.7617V46.4344H27.8492V49.5219H30.9367V52.6094H34.0445V49.5219H37.132V46.4344H40.2398V43.3265H43.3273V40.239H46.4148V37.1516H49.5227V34.0437H52.6102V24.7609H49.5227V21.6734ZM46.4148 34.0437H43.3273V27.8484H37.132V24.7609H43.3273V27.8484H46.4148V34.0437Z" fill="#D47B28"/>
<path d="M52.6094 6.19531H46.4141V9.28281H52.6094V6.19531Z" fill="#D47B28"/>
<path d="M46.4133 58.8047H40.2383V61.9125H46.4133V58.8047Z" fill="#D47B28"/>
<path d="M46.4133 3.08749H40.2383V6.19531H46.4133V3.08749Z" fill="#D47B28"/>
<path d="M40.2398 61.9125H24.7617V65H40.2398V61.9125Z" fill="#D47B28"/>
<path d="M40.2398 0H24.7617V3.0875H40.2398V0Z" fill="#D47B28"/>
<path d="M24.7617 58.8047H18.5664V61.9125H24.7617V58.8047Z" fill="#D47B28"/>
<path d="M24.7617 3.08749H18.5664V6.19531H24.7617V3.08749Z" fill="#D47B28"/>
<path d="M18.5664 55.7172H12.3711V58.8047H18.5664V55.7172Z" fill="#D47B28"/>
<path d="M18.5664 6.19531H12.3711V9.28281H18.5664V6.19531Z" fill="#D47B28"/>
<path d="M12.3707 52.6094H9.2832V55.7172H12.3707V52.6094Z" fill="#D47B28"/>
<path d="M12.3707 9.28281H9.2832V12.3703H12.3707V9.28281Z" fill="#D47B28"/>
<path d="M9.28359 46.4344H6.17578V52.6094H9.28359V46.4344Z" fill="#D47B28"/>
<path d="M9.28359 12.3703H6.17578V18.5656H9.28359V12.3703Z" fill="#D47B28"/>
<path d="M6.17539 40.2391H3.08789V46.4344H6.17539V40.2391Z" fill="#D47B28"/>
<path d="M6.17539 18.5656H3.08789V24.7609H6.17539V18.5656Z" fill="#D47B28"/>
<path d="M3.0875 24.7609H0V40.239H3.0875V24.7609Z" fill="#D47B28"/>
</g>
<defs>
<clipPath id="clip0_98_379">
<rect width="65" height="65" fill="white"/>
</clipPath>
</defs>
</svg>
