<svg width="58" height="58" viewBox="0 0 58 58" fill="none" xmlns="http://www.w3.org/2000/svg">
<g clip-path="url(#clip0_98_344)">
<path d="M57.9997 11.0562H55.2266V13.8112H57.9997V11.0562Z" fill="#D47B28"/>
<path d="M52.4718 27.6225V30.3775H49.7168V33.1506H52.4718V35.9056H49.7168V38.6606H52.4718V41.4337H49.7168V44.1887H55.2268V22.0944H52.4718V24.8494H49.7168V27.6225H52.4718Z" fill="#D47B28"/>
<path d="M55.2265 8.28311H46.9434V11.0562H55.2265V8.28311Z" fill="#D47B28"/>
<path d="M46.9434 13.8112V16.5662H49.7165V19.3394H52.4715V16.5662H55.2265V13.8112H46.9434Z" fill="#D47B28"/>
<path d="M55.2265 5.52812V2.755H52.4715V0H49.7165V2.755H46.9434V5.52812H55.2265Z" fill="#D47B28"/>
<path d="M49.7176 22.0944H44.1895V24.8494H49.7176V22.0944Z" fill="#D47B28"/>
<path d="M19.3222 27.6225H24.8503V30.3775H27.6234V33.1506H33.1334V35.9056H27.6234V38.6606H33.1334V41.4338H27.6234V44.1888H33.1334V46.9619H27.6234V49.7169H33.1334V52.4719H38.6616V49.7169H44.1897V46.9619H49.7178V44.1888H44.1897V41.4338H49.7178V38.6606H44.1897V35.9056H49.7178V33.1506H44.1897V30.3775H49.7178V27.6225H44.1897V24.8494H38.6616V22.0944H33.1334V19.3394H27.6234V16.5663H22.0953V19.3394H16.5672V22.0944H11.0391V24.8494H19.3222V27.6225Z" fill="#D47B28"/>
<path d="M46.9445 5.52814H44.1895V8.28314H46.9445V5.52814Z" fill="#D47B28"/>
<path d="M44.1883 13.8112H38.6602V16.5662H44.1883V13.8112Z" fill="#D47B28"/>
<path d="M38.6609 11.0562H33.1328V13.8112H38.6609V11.0562Z" fill="#D47B28"/>
<path d="M33.133 13.8112H27.623V16.5662H33.133V13.8112Z" fill="#D47B28"/>
<path d="M33.133 52.4719H27.623V55.245H33.133V52.4719Z" fill="#D47B28"/>
<path d="M27.6227 8.28311H24.8496V11.0562H27.6227V8.28311Z" fill="#D47B28"/>
<path d="M24.8495 52.4719H27.6227V49.7169H24.8495V46.9619H27.6227V44.1888H24.8495V41.4338H27.6227V38.6606H24.8495V35.9056H27.6227V33.1506H22.0945V35.9056H16.5664V38.6606H22.0945V41.4338H16.5664V44.1888H22.0945V46.9619H16.5664V49.7169H22.0945V52.4719H16.5664V55.245H22.0945V58H27.6227V55.245H24.8495V52.4719Z" fill="#D47B28"/>
<path d="M24.8484 0H19.3203V2.755H24.8484V0Z" fill="#D47B28"/>
<path d="M24.8484 11.0562H19.3203V13.8112H24.8484V11.0562Z" fill="#D47B28"/>
<path d="M24.8484 5.52814H19.3203V8.28314H24.8484V5.52814Z" fill="#D47B28"/>
<path d="M19.3214 2.755H16.5664V5.52813H19.3214V2.755Z" fill="#D47B28"/>
<path d="M16.5672 49.7169H11.0391V52.4719H16.5672V49.7169Z" fill="#D47B28"/>
<path d="M16.5672 33.1506H11.0391V35.9056H16.5672V33.1506Z" fill="#D47B28"/>
<path d="M16.5672 44.1888H11.0391V46.9619H16.5672V44.1888Z" fill="#D47B28"/>
<path d="M16.5672 38.6606H11.0391V41.4337H16.5672V38.6606Z" fill="#D47B28"/>
<path d="M13.8122 11.0562H11.0391V13.8112H13.8122V11.0562Z" fill="#D47B28"/>
<path d="M11.0379 46.9619H5.50977V49.7169H11.0379V46.9619Z" fill="#D47B28"/>
<path d="M11.0379 41.4337H5.50977V44.1887H11.0379V41.4337Z" fill="#D47B28"/>
<path d="M11.0379 35.9056H5.50977V38.6606H11.0379V35.9056Z" fill="#D47B28"/>
<path d="M11.0379 30.3775H5.50977V33.1506H11.0379V30.3775Z" fill="#D47B28"/>
<path d="M11.0379 24.8494H5.50977V27.6225H11.0379V24.8494Z" fill="#D47B28"/>
<path d="M2.75586 13.8112V16.5662H5.51086V19.3394H8.28398V16.5662H11.039V13.8112H2.75586Z" fill="#D47B28"/>
<path d="M11.039 5.52812V2.755H8.28398V0H5.51086V2.755H2.75586V5.52812H11.039Z" fill="#D47B28"/>
<path d="M5.51 44.1887H2.755V41.4338H5.51V38.6606H2.755V35.9056H5.51V33.1506H2.755V30.3775H5.51V27.6225H0V46.9619H5.51V44.1887Z" fill="#D47B28"/>
<path d="M11.039 8.28311H2.75586V11.0562H11.039V8.28311Z" fill="#D47B28"/>
<path d="M2.755 5.52814H0V8.28314H2.755V5.52814Z" fill="#D47B28"/>
</g>
<defs>
<clipPath id="clip0_98_344">
<rect width="58" height="58" fill="white"/>
</clipPath>
</defs>
</svg>
