<svg width="56" height="56" viewBox="0 0 56 56" fill="none" xmlns="http://www.w3.org/2000/svg">
<path d="M54.6698 6.6675H52.0098V52.01H54.6698V6.6675Z" fill="#D47B28"/>
<path d="M52.0105 52.01H6.66797V54.67H52.0105V52.01Z" fill="#D47B28"/>
<path d="M49.3319 4.00751H46.6719V46.6725H49.3319V4.00751Z" fill="#D47B28"/>
<path d="M41.3355 25.34H35.998V28H41.3355V35.9975H44.013V9.345H41.3355V25.34Z" fill="#D47B28"/>
<path d="M35.9982 33.3375H33.3382V35.9975H9.3457V38.675H41.3357V35.9975H35.9982V33.3375Z" fill="#D47B28"/>
<path d="M35.9979 28H33.3379V30.6775H35.9979V28Z" fill="#D47B28"/>
<path d="M33.3377 30.6775H30.6777V33.3375H33.3377V30.6775Z" fill="#D47B28"/>
<path d="M30.6775 22.6625H35.9975V20.0025H38.675V14.665H35.9975V12.005H30.6775V14.665H28V20.0025H30.6775V22.6625Z" fill="#D47B28"/>
<path d="M30.6775 28H28V30.6775H30.6775V28Z" fill="#D47B28"/>
<path d="M27.9998 25.34H25.3398V28H27.9998V25.34Z" fill="#D47B28"/>
<path d="M25.3397 22.6625H22.6797V25.34H25.3397V22.6625Z" fill="#D47B28"/>
<path d="M22.6793 20.0025H17.3418V22.6625H22.6793V20.0025Z" fill="#D47B28"/>
<path d="M17.3435 22.6625H14.666V25.34H17.3435V22.6625Z" fill="#D47B28"/>
<path d="M14.6659 25.34H12.0059V28H14.6659V25.34Z" fill="#D47B28"/>
<path d="M41.3357 6.6675H9.3457V9.345H41.3357V6.6675Z" fill="#D47B28"/>
<path d="M9.34547 30.6775H12.0055V28H9.34547V9.345H6.66797V35.9975H9.34547V30.6775Z" fill="#D47B28"/>
<path d="M46.6728 1.33H4.00781V4.0075H46.6728V1.33Z" fill="#D47B28"/>
<path d="M46.6728 46.6725H4.00781V49.3325H46.6728V46.6725Z" fill="#D47B28"/>
<path d="M4.00758 4.00751H1.33008V46.6725H4.00758V4.00751Z" fill="#D47B28"/>
</svg>
