<svg width="81" height="83" viewBox="0 0 81 83" fill="none" xmlns="http://www.w3.org/2000/svg">
<g clip-path="url(#clip0_98_473)">
<path d="M60.5683 76.747L55.0312 74.8293L54.0019 77.8015L59.5389 79.7192L60.5683 76.747Z" fill="#D47B28"/>
<path d="M54.0016 77.8015L51.2422 76.8458L50.2195 79.7986L52.979 80.7543L54.0016 77.8015Z" fill="#D47B28"/>
<path d="M58.4216 56.1183L55.6441 55.1563L54.6214 58.1091L57.399 59.0711L56.3696 62.0432L59.129 62.9989L64.2558 48.1964L61.4963 47.2407L58.4216 56.1183Z" fill="#D47B28"/>
<path d="M52.2714 73.8736L46.7344 71.9559L45.705 74.9281L51.242 76.8458L52.2714 73.8736Z" fill="#D47B28"/>
<path d="M62.5198 44.2879L59.7422 43.3259L58.7195 46.2787L61.4971 47.2407L62.5198 44.2879Z" fill="#D47B28"/>
<path d="M47.7577 69.0033L42.2207 67.0856L41.198 70.0383L46.735 71.956L47.7577 69.0033Z" fill="#D47B28"/>
<path d="M49.1021 56.1976L51.8615 57.1533L52.8842 54.2006L55.6436 55.1563L56.6662 52.2036L53.9068 51.2479L56.9815 42.3702L59.7409 43.3259L60.7703 40.3538L58.0109 39.398L61.0856 30.5204L58.3262 29.5647L49.1021 56.1976Z" fill="#D47B28"/>
<path d="M40.1696 73.0104L37.4102 72.0547L36.3875 75.0074L39.1469 75.9631L40.1696 73.0104Z" fill="#D47B28"/>
<path d="M48.3708 49.3302L45.6113 48.3745L44.5887 51.3273L47.3481 52.283L48.3708 49.3302Z" fill="#D47B28"/>
<path d="M50.4215 43.4053L47.6621 42.4496L46.6395 45.4023L49.3989 46.358L50.4215 43.4053Z" fill="#D47B28"/>
<path d="M39.4612 66.1298L36.6836 65.1678L34.6316 71.0928L37.4091 72.0547L39.4612 66.1298Z" fill="#D47B28"/>
<path d="M41.5135 60.2049L30.4395 56.3695L29.4101 59.3417L40.4841 63.1771L41.5135 60.2049Z" fill="#D47B28"/>
<path d="M56.8928 15.7972L54.1152 14.8352L53.0858 17.8074L55.8634 18.7694L56.8928 15.7972Z" fill="#D47B28"/>
<path d="M55.138 11.8825L49.6191 9.97107L48.5965 12.9238L54.1153 14.8352L55.138 11.8825Z" fill="#D47B28"/>
<path d="M51.7662 30.5998L48.9886 29.6378L50.0113 26.685L44.4924 24.7736L43.4698 27.7264L46.2292 28.6821L45.1998 31.6542L42.4404 30.6985L43.4698 27.7264L40.6922 26.7644L38.6401 32.6893L41.4177 33.6513L40.3883 36.6235L45.9072 38.5349L46.9366 35.5627L49.7142 36.5247L51.7662 30.5998Z" fill="#D47B28"/>
<path d="M31.1643 63.2564L28.3867 62.2944L26.3347 68.2193L29.1123 69.1813L31.1643 63.2564Z" fill="#D47B28"/>
<path d="M25.9257 51.4991L28.7033 52.4611L27.6806 55.4139L30.44 56.3696L31.4627 53.4168L42.5367 57.2522L41.5141 60.205L44.2735 61.1607L45.2961 58.2079L48.0737 59.1699L49.1031 56.1978L26.9551 48.527L25.9257 51.4991Z" fill="#D47B28"/>
<path d="M48.5979 12.9239L45.8203 11.9619L44.7909 14.9341L47.5685 15.8961L48.5979 12.9239Z" fill="#D47B28"/>
<path d="M26.3356 68.2194L23.5762 67.2637L22.5535 70.2164L25.3129 71.1721L26.3356 68.2194Z" fill="#D47B28"/>
<path d="M25.6288 61.3387L20.0918 59.421L19.0691 62.3738L24.6061 64.2915L25.6288 61.3387Z" fill="#D47B28"/>
<path d="M43.7683 17.8868L44.7909 14.9341L42.0315 13.9783L41.0088 16.9311L38.2312 15.9691L36.1792 21.894L38.9568 22.856L39.9794 19.9033L56.5723 25.6501L55.5496 28.6028L58.3272 29.5648L60.3793 23.6399L57.6017 22.6779L58.6243 19.7251L55.8649 18.7694L54.8423 21.7222L43.7683 17.8868Z" fill="#D47B28"/>
<path d="M36.179 21.894L33.4196 20.9382L30.3449 29.8159L27.5855 28.8602L26.5561 31.8324L29.3155 32.7881L26.2408 41.6657L23.4814 40.71L22.4587 43.6628L25.2181 44.6185L24.1955 47.5712L26.9549 48.5269L36.179 21.894Z" fill="#D47B28"/>
<path d="M19.0683 62.3738L13.5312 60.4561L12.5019 63.4282L18.0389 65.3459L19.0683 62.3738Z" fill="#D47B28"/>
<path d="M26.5549 31.8324L23.7773 30.8704L22.7547 33.8231L25.5323 34.7851L26.5549 31.8324Z" fill="#D47B28"/>
<path d="M12.5016 63.4282L9.74219 62.4725L8.71953 65.4253L11.479 66.381L12.5016 63.4282Z" fill="#D47B28"/>
<path d="M22.7555 33.8231L19.9961 32.8674L14.8694 47.67L17.6288 48.6257L18.6582 45.6535L21.4357 46.6155L22.4584 43.6628L19.6808 42.7008L22.7555 33.8231Z" fill="#D47B28"/>
<path d="M10.7714 59.5003L5.23438 57.5826L4.20499 60.5548L9.742 62.4725L10.7714 59.5003Z" fill="#D47B28"/>
<path d="M4.20474 60.5548L1.44531 59.5991L0.422655 62.5519L3.18208 63.5076L4.20474 60.5548Z" fill="#D47B28"/>
</g>
<defs>
<clipPath id="clip0_98_473">
<rect width="61.4787" height="65.7857" fill="white" transform="translate(21.9531 0.388916) rotate(19.1031)"/>
</clipPath>
</defs>
</svg>
