<svg width="80" height="80" viewBox="0 0 80 80" fill="none" xmlns="http://www.w3.org/2000/svg">
<path d="M64.7742 11.425V15.25H68.5742V53.35H72.3742V11.425H68.5742V7.625H60.9492V11.425H64.7742Z" fill="#D47B28"/>
<path d="M68.5754 53.35H64.7754V60.95H68.5754V53.35Z" fill="#D47B28"/>
<path d="M64.7742 60.95H60.9492V64.775H64.7742V60.95Z" fill="#D47B28"/>
<path d="M64.7742 15.25H60.9492V53.35H64.7742V15.25Z" fill="#D47B28"/>
<path d="M60.9504 64.775H57.1504V68.575H60.9504V64.775Z" fill="#D47B28"/>
<path d="M60.9504 53.35H57.1504V60.95H60.9504V53.35Z" fill="#D47B28"/>
<path d="M57.1496 68.575H53.3496V72.4H57.1496V68.575Z" fill="#D47B28"/>
<path d="M57.1496 60.95H53.3496V64.775H57.1496V60.95Z" fill="#D47B28"/>
<path d="M60.9496 11.425H53.3496V15.25H60.9496V11.425Z" fill="#D47B28"/>
<path d="M60.9496 3.825H53.3496V7.625H60.9496V3.825Z" fill="#D47B28"/>
<path d="M53.3496 72.4H45.7246V76.2H53.3496V72.4Z" fill="#D47B28"/>
<path d="M53.3496 64.775H45.7246V68.575H53.3496V64.775Z" fill="#D47B28"/>
<path d="M34.3008 34.3V26.675H30.4758V34.3H26.6758V53.35H30.4758V57.15H49.5258V53.35H53.3508V34.3H49.5258V26.675H45.7258V34.3H34.3008ZM41.9008 45.725H38.1008V38.1H41.9008V45.725Z" fill="#D47B28"/>
<path d="M45.7258 76.2H34.3008V80H45.7258V76.2Z" fill="#D47B28"/>
<path d="M45.7258 68.575H34.3008V72.4H45.7258V68.575Z" fill="#D47B28"/>
<path d="M45.7258 22.875H34.3008V26.675H45.7258V22.875Z" fill="#D47B28"/>
<path d="M34.3008 72.4H26.6758V76.2H34.3008V72.4Z" fill="#D47B28"/>
<path d="M34.3008 64.775H26.6758V68.575H34.3008V64.775Z" fill="#D47B28"/>
<path d="M53.3508 7.625H26.6758V11.425H53.3508V7.625Z" fill="#D47B28"/>
<path d="M53.3508 0H26.6758V3.825H53.3508V0Z" fill="#D47B28"/>
<path d="M26.6746 68.575H22.8496V72.4H26.6746V68.575Z" fill="#D47B28"/>
<path d="M26.6746 60.95H22.8496V64.775H26.6746V60.95Z" fill="#D47B28"/>
<path d="M26.6758 11.425H19.0508V15.25H26.6758V11.425Z" fill="#D47B28"/>
<path d="M26.6758 3.825H19.0508V7.625H26.6758V3.825Z" fill="#D47B28"/>
<path d="M22.8508 64.775H19.0508V68.575H22.8508V64.775Z" fill="#D47B28"/>
<path d="M22.8508 53.35H19.0508V60.95H22.8508V53.35Z" fill="#D47B28"/>
<path d="M19.05 60.95H15.25V64.775H19.05V60.95Z" fill="#D47B28"/>
<path d="M19.05 15.25H15.25V53.35H19.05V15.25Z" fill="#D47B28"/>
<path d="M19.0508 7.625H11.4258V11.425H19.0508V7.625Z" fill="#D47B28"/>
<path d="M15.2508 53.35H11.4258V60.95H15.2508V53.35Z" fill="#D47B28"/>
<path d="M11.425 11.425H7.625V53.35H11.425V11.425Z" fill="#D47B28"/>
</svg>
