<svg width="62" height="62" viewBox="0 0 62 62" fill="none" xmlns="http://www.w3.org/2000/svg">
<g clip-path="url(#clip0_98_443)">
<path d="M59.0544 41.3463H56.1094V44.2913H59.0544V47.2363H61.9994V38.3819H59.0544V41.3463Z" fill="#D47B28"/>
<path d="M59.0544 47.2363H56.1094V50.2006H59.0544V47.2363Z" fill="#D47B28"/>
<path d="M59.0544 35.4369H56.1094V38.3819H59.0544V35.4369Z" fill="#D47B28"/>
<path d="M56.1098 44.2913H44.291V47.2363H56.1098V44.2913Z" fill="#D47B28"/>
<path d="M56.1098 32.4725H44.291V35.4368H56.1098V32.4725Z" fill="#D47B28"/>
<path d="M56.1098 50.2006H44.291V53.1456H56.1098V50.2006Z" fill="#D47B28"/>
<path d="M44.2907 35.4369H41.3457V38.3819H44.2907V35.4369Z" fill="#D47B28"/>
<path d="M38.3825 44.2913H35.4375V47.2363H38.3825V50.2006H35.4375V53.1456H38.3825V56.0906H41.3469V41.3463H38.3825V44.2913Z" fill="#D47B28"/>
<path d="M38.3825 56.0906H35.4375V59.055H38.3825V56.0906Z" fill="#D47B28"/>
<path d="M38.3825 38.3819H35.4375V41.3463H38.3825V38.3819Z" fill="#D47B28"/>
<path d="M35.4376 59.055H20.6738V62H35.4376V59.055Z" fill="#D47B28"/>
<path d="M35.4376 53.1456H20.6738V56.0906H35.4376V53.1456Z" fill="#D47B28"/>
<path d="M35.4376 47.2363H20.6738V50.2006H35.4376V47.2363Z" fill="#D47B28"/>
<path d="M35.4376 35.4369H20.6738V38.3819H35.4376V35.4369Z" fill="#D47B28"/>
<path d="M20.6738 29.5275V32.4725H26.5832V26.5825H23.6188V29.5275H20.6738Z" fill="#D47B28"/>
<path d="M23.6188 23.6181H20.6738V26.5825H23.6188V23.6181Z" fill="#D47B28"/>
<path d="M20.6735 56.0906H17.7285V59.055H20.6735V56.0906Z" fill="#D47B28"/>
<path d="M20.673 53.1456V50.2006H17.728V47.2363H20.673V44.2913H17.728V41.3463H14.7637V56.0906H17.728V53.1456H20.673Z" fill="#D47B28"/>
<path d="M20.6735 38.3819H17.7285V41.3463H20.6735V38.3819Z" fill="#D47B28"/>
<path d="M20.6739 32.4725H5.91016V35.4368H20.6739V32.4725Z" fill="#D47B28"/>
<path d="M56.1096 17.7087V0H38.3815V2.96437H41.3459V5.90937H44.2909V8.85437H41.3459V11.8187H35.4365V8.85437H32.4915V5.90937H29.5271V2.96437H23.6177V5.90937H20.6727V8.85437H17.7277V11.8187H14.7634V14.7637H11.8184V17.7087H17.7277V14.7637H20.6727V11.8187H23.6177V8.85437H29.5271V11.8187H32.4915V14.7637H35.4365V17.7087H41.3459V14.7637H44.2909V11.8187H50.2002V14.7637H53.1452V17.7087H56.1096Z" fill="#D47B28"/>
<path d="M20.6739 20.6731H5.91016V23.6181H20.6739V20.6731Z" fill="#D47B28"/>
<path d="M11.8195 53.1456H5.91016V56.0906H11.8195V53.1456Z" fill="#D47B28"/>
<path d="M11.8195 44.2913H5.91016V47.2363H11.8195V44.2913Z" fill="#D47B28"/>
<path d="M11.8195 38.3819H5.91016V41.3463H11.8195V38.3819Z" fill="#D47B28"/>
<path d="M5.90984 50.2006H2.96484V53.1456H5.90984V50.2006Z" fill="#D47B28"/>
<path d="M5.90984 23.6181H2.96484V26.5825H5.90984V23.6181Z" fill="#D47B28"/>
<path d="M2.96437 32.4725H5.90937V29.5275H2.96437V26.5825H0V50.2006H2.96437V44.2913H5.90937V41.3463H2.96437V38.3819H5.90937V35.4369H2.96437V32.4725Z" fill="#D47B28"/>
</g>
<defs>
<clipPath id="clip0_98_443">
<rect width="62" height="62" fill="white"/>
</clipPath>
</defs>
</svg>
