<svg width="74" height="74" viewBox="0 0 74 74" fill="none" xmlns="http://www.w3.org/2000/svg">
<g clip-path="url(#clip0_98_302)">
<path d="M74.0004 35.2425H66.9473V38.7575H74.0004V35.2425Z" fill="#D47B28"/>
<path d="M70.4623 52.8638H66.9473V56.3788H70.4623V52.8638Z" fill="#D47B28"/>
<path d="M70.4623 17.6212H66.9473V21.1362H70.4623V17.6212Z" fill="#D47B28"/>
<path d="M66.9463 49.3256H63.4082V52.8637H66.9463V49.3256Z" fill="#D47B28"/>
<path d="M66.9463 21.1362H63.4082V24.6744H66.9463V21.1362Z" fill="#D47B28"/>
<path d="M59.8939 66.9469H56.3789V70.485H59.8939V66.9469Z" fill="#D47B28"/>
<path d="M59.8939 3.515H56.3789V7.05312H59.8939V3.515Z" fill="#D47B28"/>
<path d="M56.378 63.4319H52.8398V66.9469H56.378V63.4319Z" fill="#D47B28"/>
<path d="M56.378 7.05313H52.8398V10.5681H56.378V7.05313Z" fill="#D47B28"/>
<path d="M52.8412 42.2956H49.3262V45.8106H52.8412V42.2956Z" fill="#D47B28"/>
<path d="M52.8412 31.7044H49.3262V35.2425H52.8412V31.7044Z" fill="#D47B28"/>
<path d="M49.3252 35.2425H45.7871V38.7575H49.3252V35.2425Z" fill="#D47B28"/>
<path d="M45.7884 38.7575H42.2734V42.2956H45.7884V38.7575Z" fill="#D47B28"/>
<path d="M42.2728 42.2956H38.7578V45.8106H42.2728V42.2956Z" fill="#D47B28"/>
<path d="M42.2728 31.7044H38.7578V35.2425H42.2728V31.7044Z" fill="#D47B28"/>
<path d="M38.7569 66.9469H35.2188V74H38.7569V66.9469Z" fill="#D47B28"/>
<path d="M38.7569 0H35.2188V7.05312H38.7569V0Z" fill="#D47B28"/>
<path d="M35.2185 28.1894H24.6504V45.8106H35.2185V28.1894ZM31.7035 42.2956H28.1885V31.7044H31.7035V42.2956Z" fill="#D47B28"/>
<path d="M21.1358 63.4319H17.5977V66.9469H21.1358V63.4319Z" fill="#D47B28"/>
<path d="M21.1358 7.05313H17.5977V10.5681H21.1358V7.05313Z" fill="#D47B28"/>
<path d="M17.599 66.9469H14.084V70.485H17.599V66.9469Z" fill="#D47B28"/>
<path d="M17.599 3.515H14.084V7.05312H17.599V3.515Z" fill="#D47B28"/>
<path d="M10.5674 49.3256H7.0293V52.8637H10.5674V49.3256Z" fill="#D47B28"/>
<path d="M10.5674 21.1362H7.0293V24.6744H10.5674V21.1362Z" fill="#D47B28"/>
<path d="M7.03062 52.8638H3.51562V56.3788H7.03062V52.8638Z" fill="#D47B28"/>
<path d="M7.03 35.2425H0V38.7575H7.03V35.2425Z" fill="#D47B28"/>
<path d="M7.03062 17.6212H3.51562V21.1362H7.03062V17.6212Z" fill="#D47B28"/>
</g>
<defs>
<clipPath id="clip0_98_302">
<rect width="74" height="74" fill="white"/>
</clipPath>
</defs>
</svg>
