<svg width="32" height="32" viewBox="0 0 32 32" fill="none" xmlns="http://www.w3.org/2000/svg">
<path d="M28.9109 27.3799H27.3809V28.8999H28.9109V27.3799Z" fill="#000001"/>
<path d="M28.9109 3H27.3809V4.52H28.9109V3Z" fill="#000001"/>
<path d="M27.3794 25.8501H25.8594V27.3801H27.3794V25.8501Z" fill="#000001"/>
<path d="M27.3794 4.52002H25.8594V6.04002H27.3794V4.52002Z" fill="#000001"/>
<path d="M25.8598 24.3301H24.3398V25.8501H25.8598V24.3301Z" fill="#000001"/>
<path d="M25.8598 6.04004H24.3398V7.57004H25.8598V6.04004Z" fill="#000001"/>
<path d="M24.3405 22.8101H22.8105V24.3301H24.3405V22.8101Z" fill="#000001"/>
<path d="M24.3405 7.57007H22.8105V9.09007H24.3405V7.57007Z" fill="#000001"/>
<path d="M22.8091 21.28H21.2891V22.81H22.8091V21.28Z" fill="#000001"/>
<path d="M22.8091 9.09009H21.2891V10.6201H22.8091V9.09009Z" fill="#000001"/>
<path d="M21.2898 19.76H19.7598V21.28H21.2898V19.76Z" fill="#000001"/>
<path d="M21.2898 10.6201H19.7598V12.1401H21.2898V10.6201Z" fill="#000001"/>
<path d="M19.7602 18.24H18.2402V19.76H19.7602V18.24Z" fill="#000001"/>
<path d="M19.7602 12.1399H18.2402V13.6599H19.7602V12.1399Z" fill="#000001"/>
<path d="M18.2407 16.71H16.7207V18.24H18.2407V16.71Z" fill="#000001"/>
<path d="M18.2407 13.6599H16.7207V15.1899H18.2407V13.6599Z" fill="#000001"/>
<path d="M16.7195 15.1899H15.1895V16.7099H16.7195V15.1899Z" fill="#000001"/>
<path d="M15.1899 16.71H13.6699V18.24H15.1899V16.71Z" fill="#000001"/>
<path d="M15.1899 13.6599H13.6699V15.1899H15.1899V13.6599Z" fill="#000001"/>
<path d="M13.6704 18.24H12.1504V19.76H13.6704V18.24Z" fill="#000001"/>
<path d="M13.6704 12.1399H12.1504V13.6599H13.6704V12.1399Z" fill="#000001"/>
<path d="M12.1491 19.76H10.6191V21.28H12.1491V19.76Z" fill="#000001"/>
<path d="M12.1491 10.6201H10.6191V12.1401H12.1491V10.6201Z" fill="#000001"/>
<path d="M10.6196 21.28H9.09961V22.81H10.6196V21.28Z" fill="#000001"/>
<path d="M10.6196 9.09009H9.09961V10.6201H10.6196V9.09009Z" fill="#000001"/>
<path d="M9.10031 22.8101H7.57031V24.3301H9.10031V22.8101Z" fill="#000001"/>
<path d="M9.10031 7.57007H7.57031V9.09007H9.10031V7.57007Z" fill="#000001"/>
<path d="M7.57078 24.3301H6.05078V25.8501H7.57078V24.3301Z" fill="#000001"/>
<path d="M7.57078 6.04004H6.05078V7.57004H7.57078V6.04004Z" fill="#000001"/>
<path d="M6.0493 25.8501H4.5293V27.3801H6.0493V25.8501Z" fill="#000001"/>
<path d="M6.0493 4.52002H4.5293V6.04002H6.0493V4.52002Z" fill="#000001"/>
<path d="M4.53 27.3799H3V28.8999H4.53V27.3799Z" fill="#000001"/>
<path d="M4.53 3H3V4.52H4.53V3Z" fill="#000001"/>
</svg>
