<svg width="32" height="32" viewBox="0 0 32 32" fill="none" xmlns="http://www.w3.org/2000/svg">
<path d="M28.948 27.4299H27.418V28.9499H28.948V27.4299Z" fill="#FDDEC3"/>
<path d="M28.948 3.05005H27.418V4.57005H28.948V3.05005Z" fill="#FDDEC3"/>
<path d="M27.4184 25.9001H25.8984V27.4301H27.4184V25.9001Z" fill="#FDDEC3"/>
<path d="M27.4184 4.57007H25.8984V6.09007H27.4184V4.57007Z" fill="#FDDEC3"/>
<path d="M25.8989 24.3801H24.3789V25.9001H25.8989V24.3801Z" fill="#FDDEC3"/>
<path d="M25.8989 6.09009H24.3789V7.62009H25.8989V6.09009Z" fill="#FDDEC3"/>
<path d="M24.3777 22.8601H22.8477V24.3801H24.3777V22.8601Z" fill="#FDDEC3"/>
<path d="M24.3777 7.62012H22.8477V9.14012H24.3777V7.62012Z" fill="#FDDEC3"/>
<path d="M22.8481 21.3301H21.3281V22.8601H22.8481V21.3301Z" fill="#FDDEC3"/>
<path d="M22.8481 9.14014H21.3281V10.6701H22.8481V9.14014Z" fill="#FDDEC3"/>
<path d="M21.3308 19.8101H19.8008V21.3301H21.3308V19.8101Z" fill="#FDDEC3"/>
<path d="M21.3308 10.6702H19.8008V12.1902H21.3308V10.6702Z" fill="#FDDEC3"/>
<path d="M19.7973 18.29H18.2773V19.81H19.7973V18.29Z" fill="#FDDEC3"/>
<path d="M19.7973 12.1899H18.2773V13.7099H19.7973V12.1899Z" fill="#FDDEC3"/>
<path d="M18.2778 16.76H16.7578V18.29H18.2778V16.76Z" fill="#FDDEC3"/>
<path d="M18.2778 13.71H16.7578V15.24H18.2778V13.71Z" fill="#FDDEC3"/>
<path d="M16.7605 15.24H15.2305V16.76H16.7605V15.24Z" fill="#FDDEC3"/>
<path d="M15.2309 16.76H13.7109V18.29H15.2309V16.76Z" fill="#FDDEC3"/>
<path d="M15.2309 13.71H13.7109V15.24H15.2309V13.71Z" fill="#FDDEC3"/>
<path d="M13.7075 18.29H12.1875V19.81H13.7075V18.29Z" fill="#FDDEC3"/>
<path d="M13.7075 12.1899H12.1875V13.7099H13.7075V12.1899Z" fill="#FDDEC3"/>
<path d="M12.1902 19.8101H10.6602V21.3301H12.1902V19.8101Z" fill="#FDDEC3"/>
<path d="M12.1902 10.6702H10.6602V12.1902H12.1902V10.6702Z" fill="#FDDEC3"/>
<path d="M10.6606 21.3301H9.14062V22.8601H10.6606V21.3301Z" fill="#FDDEC3"/>
<path d="M10.6606 9.14014H9.14062V10.6701H10.6606V9.14014Z" fill="#FDDEC3"/>
<path d="M9.13938 22.8601H7.60938V24.3801H9.13938V22.8601Z" fill="#FDDEC3"/>
<path d="M9.13938 7.62012H7.60938V9.14012H9.13938V7.62012Z" fill="#FDDEC3"/>
<path d="M7.60984 24.3801H6.08984V25.9001H7.60984V24.3801Z" fill="#FDDEC3"/>
<path d="M7.60984 6.09009H6.08984V7.62009H7.60984V6.09009Z" fill="#FDDEC3"/>
<path d="M6.09031 25.9001H4.57031V27.4301H6.09031V25.9001Z" fill="#FDDEC3"/>
<path d="M6.09031 4.57007H4.57031V6.09007H6.09031V4.57007Z" fill="#FDDEC3"/>
<path d="M4.56906 27.4299H3.03906V28.9499H4.56906V27.4299Z" fill="#FDDEC3"/>
<path d="M4.56906 3.05005H3.03906V4.57005H4.56906V3.05005Z" fill="#FDDEC3"/>
</svg>
