<svg width="32" height="32" viewBox="0 0 32 32" fill="none" xmlns="http://www.w3.org/2000/svg">
<g clip-path="url(#clip0_125_12836)">
<path d="M24.3798 19.81H22.8498V22.86H19.8098V24.38H16.7598V25.9H21.3298V27.43H22.8498V28.95H24.3798V30.48H25.8998V32H27.4298V30.48H28.9498V28.95H30.4698V27.43H31.9998V25.9H30.4698V24.38H28.9498V22.86H27.4298V21.33H25.8998V16.76H24.3798V19.81Z" fill="#000010"/>
<path d="M27.4304 10.6699H25.9004V16.7599H27.4304V10.6699Z" fill="#000010"/>
<path d="M25.9009 7.62012H24.3809V10.6701H25.9009V7.62012Z" fill="#000010"/>
<path d="M24.3796 4.57007H22.8496V7.62007H24.3796V4.57007Z" fill="#000010"/>
<path d="M22.8501 12.1899H21.3301V15.2399H22.8501V12.1899Z" fill="#000010"/>
<path d="M21.3305 9.13989H19.8105V12.1899H21.3305V9.13989Z" fill="#000010"/>
<path d="M22.8505 3.05005H19.8105V4.57005H22.8505V3.05005Z" fill="#000010"/>
<path d="M19.8098 7.62012H16.7598V9.14012H19.8098V7.62012Z" fill="#000010"/>
<path d="M19.8098 1.52002H16.7598V3.05002H19.8098V1.52002Z" fill="#000010"/>
<path d="M16.7609 6.1001H13.7109V7.6201H16.7609V6.1001Z" fill="#000010"/>
<path d="M16.7602 25.8999H10.6602V27.4299H16.7602V25.8999Z" fill="#000010"/>
<path d="M16.7602 0H10.6602V1.52H16.7602V0Z" fill="#000010"/>
<path d="M10.6591 24.3799H7.61914V25.8999H10.6591V24.3799Z" fill="#000010"/>
<path d="M10.6591 1.52002H7.61914V3.05002H10.6591V1.52002Z" fill="#000010"/>
<path d="M7.62031 22.8601H4.57031V24.3801H7.62031V22.8601Z" fill="#000010"/>
<path d="M7.62031 3.05005H4.57031V4.57005H7.62031V3.05005Z" fill="#000010"/>
<path d="M4.57078 19.8101H3.05078V22.8601H4.57078V19.8101Z" fill="#000010"/>
<path d="M4.57078 4.57007H3.05078V7.62007H4.57078V4.57007Z" fill="#000010"/>
<path d="M3.04953 16.76H1.51953V19.81H3.04953V16.76Z" fill="#000010"/>
<path d="M3.04953 7.62012H1.51953V10.6701H3.04953V7.62012Z" fill="#000010"/>
<path d="M1.52 10.6699H0V16.7599H1.52V10.6699Z" fill="#000010"/>
</g>
<defs>
<clipPath id="clip0_125_12836">
<rect width="32" height="32" fill="white"/>
</clipPath>
</defs>
</svg>
