<svg width="32" height="32" viewBox="0 0 32 32" fill="none" xmlns="http://www.w3.org/2000/svg">
<g clip-path="url(#clip0_131_21601)">
<path d="M24.3817 19.81H22.8517V22.86H19.8117V24.38H16.7617V25.9H21.3317V27.43H22.8517V28.95H24.3817V30.48H25.9017V32H27.4317V30.48H28.9517V28.95H30.4717V27.43H32.0017V25.9H30.4717V24.38H28.9517V22.86H27.4317V21.33H25.9017V16.76H24.3817V19.81Z" fill="#FDDEC3"/>
<path d="M27.4284 10.6699H25.8984V16.7599H27.4284V10.6699Z" fill="#FDDEC3"/>
<path d="M25.8989 7.62012H24.3789V10.6701H25.8989V7.62012Z" fill="#FDDEC3"/>
<path d="M24.3816 4.57007H22.8516V7.62007H24.3816V4.57007Z" fill="#FDDEC3"/>
<path d="M22.8481 12.1899H21.3281V15.2399H22.8481V12.1899Z" fill="#FDDEC3"/>
<path d="M21.3286 9.13989H19.8086V12.1899H21.3286V9.13989Z" fill="#FDDEC3"/>
<path d="M22.8486 3.05005H19.8086V4.57005H22.8486V3.05005Z" fill="#FDDEC3"/>
<path d="M19.8117 7.62012H16.7617V9.14012H19.8117V7.62012Z" fill="#FDDEC3"/>
<path d="M19.8117 1.52002H16.7617V3.05002H19.8117V1.52002Z" fill="#FDDEC3"/>
<path d="M16.7609 6.1001H13.7109V7.6201H16.7609V6.1001Z" fill="#FDDEC3"/>
<path d="M16.7602 25.8999H10.6602V27.4299H16.7602V25.8999Z" fill="#FDDEC3"/>
<path d="M16.7602 0H10.6602V1.52H16.7602V0Z" fill="#FDDEC3"/>
<path d="M10.6611 24.3799H7.62109V25.8999H10.6611V24.3799Z" fill="#FDDEC3"/>
<path d="M10.6611 1.52002H7.62109V3.05002H10.6611V1.52002Z" fill="#FDDEC3"/>
<path d="M7.62031 22.8601H4.57031V24.3801H7.62031V22.8601Z" fill="#FDDEC3"/>
<path d="M7.62031 3.05005H4.57031V4.57005H7.62031V3.05005Z" fill="#FDDEC3"/>
<path d="M4.57078 19.8101H3.05078V22.8601H4.57078V19.8101Z" fill="#FDDEC3"/>
<path d="M4.57078 4.57007H3.05078V7.62007H4.57078V4.57007Z" fill="#FDDEC3"/>
<path d="M3.04953 16.76H1.51953V19.81H3.04953V16.76Z" fill="#FDDEC3"/>
<path d="M3.04953 7.62012H1.51953V10.6701H3.04953V7.62012Z" fill="#FDDEC3"/>
<path d="M1.52 10.6699H0V16.7599H1.52V10.6699Z" fill="#FDDEC3"/>
</g>
<defs>
<clipPath id="clip0_131_21601">
<rect width="32" height="32" fill="white"/>
</clipPath>
</defs>
</svg>
